<svg width="504" height="335" viewBox="0 0 504 335" fill="none" xmlns="http://www.w3.org/2000/svg">
<path d="M0.0187992 150.45C0.0187992 150.008 0.376186 149.651 0.81821 149.651H20.3331C20.7751 149.651 21.2077 150.008 21.2924 150.431L31.0451 198.564C31.1298 198.996 31.252 199.344 31.2991 199.344C31.3461 199.344 31.4684 198.987 31.553 198.564L41.3904 150.431C41.475 149.998 41.9076 149.651 42.3497 149.651H61.7705C62.2125 149.651 62.5699 150.008 62.5699 150.45V219.248C62.5699 219.69 62.2125 220.047 61.7705 220.047H50.3437C49.9017 220.047 49.5443 219.69 49.5443 219.248V164.649C49.5443 164.207 49.4973 163.85 49.4503 163.85C49.3938 163.85 49.2716 164.198 49.1775 164.63L36.9889 219.267C36.8949 219.699 36.4529 220.047 36.0108 220.047H26.5591C26.117 220.047 25.6844 219.699 25.581 219.267L13.3924 164.63C13.2983 164.198 13.1761 163.85 13.1196 163.85C13.0632 163.85 13.0256 164.207 13.0256 164.649V219.248C13.0256 219.69 12.6682 220.047 12.2262 220.047H0.799397C0.357373 220.047 0 219.69 0 219.248V150.45H0.0187992Z" fill="#5F6062"/>
<path d="M85.7808 195.599C85.3388 195.599 84.9814 195.956 84.9814 196.397V199.038C84.9814 199.48 84.9908 200.194 85.0096 200.636C85.0096 200.636 85.0943 202.938 85.32 204.423C85.5551 205.898 85.9313 207.214 86.4579 208.36C86.9846 209.516 87.6712 210.428 88.527 211.123C89.3828 211.819 90.4362 212.157 91.687 212.157C93.9912 212.157 95.6652 211.339 96.7185 209.695C97.7719 208.05 98.4961 205.551 98.8911 202.205H110.327C110.769 202.205 111.061 202.562 110.986 202.994C110.986 202.994 109.217 213.134 106.189 216.461C103.17 219.778 98.3926 221.432 91.8845 221.432C86.947 221.432 83.1004 220.586 80.3354 218.867C77.5704 217.156 75.5296 214.939 74.2223 212.204C72.9057 209.479 72.0969 206.424 71.8053 203.041C71.5044 199.658 71.3633 196.322 71.3633 193.033C71.3633 189.49 71.6078 186.07 72.1063 182.781C72.6047 179.492 73.5828 176.569 75.0688 174.003C76.5453 171.438 78.6708 169.408 81.4358 167.895C84.2008 166.382 87.8781 165.63 92.4864 165.63C96.4364 165.63 99.6717 166.269 102.211 167.557C104.741 168.835 106.735 170.649 108.183 172.979C109.631 175.319 110.619 178.138 111.145 181.456C111.672 184.782 111.935 188.475 111.935 192.554V194.809C111.935 195.251 111.578 195.608 111.136 195.608H85.7808V195.599ZM98.0917 187.508C98.5337 187.508 98.8723 187.15 98.8534 186.709C98.8534 186.709 98.703 183.683 98.4961 182.132C98.2986 180.591 97.9506 179.275 97.4615 178.195C96.9631 177.105 96.2765 176.287 95.3925 175.723C94.5084 175.169 93.3705 174.887 91.988 174.887C90.6055 174.887 89.4769 175.197 88.5834 175.817C87.6994 176.447 86.994 177.264 86.4674 178.289C85.9407 179.304 85.5645 180.441 85.3294 181.691C85.1037 182.94 84.9814 184.19 84.9814 185.431V186.699C84.9814 187.141 85.3388 187.498 85.7808 187.498H98.0917V187.508Z" fill="#5F6062"/>
<path d="M160.276 220.041H148.05C147.608 220.041 147.25 219.684 147.25 219.242V215.23C147.25 214.788 147.203 214.431 147.156 214.431C147.1 214.431 146.846 214.722 146.583 215.07C146.583 215.07 143.855 218.716 141.984 219.797C140.112 220.887 137.789 221.423 135.024 221.423C129.428 221.423 125.319 219.242 122.695 214.863C120.061 210.493 118.745 203.38 118.745 193.522C118.745 183.664 120.061 176.55 122.695 172.171C125.328 167.801 129.438 165.611 135.024 165.611C137.592 165.611 139.783 166.138 141.589 167.19C143.395 168.243 145.022 169.822 146.47 171.917C146.583 171.917 146.667 171.56 146.667 171.118V150.435C146.667 149.993 147.025 149.636 147.467 149.636H159.486C159.928 149.636 160.286 149.993 160.286 150.435V220.041H160.276ZM132.344 193.522C132.344 199.311 132.786 203.662 133.679 206.584C134.563 209.507 136.491 210.973 139.454 210.973C142.473 210.973 144.438 209.507 145.323 206.584C146.207 203.662 146.658 199.301 146.658 193.522C146.658 187.733 146.216 183.382 145.323 180.45C144.438 177.527 142.473 176.061 139.454 176.061C136.491 176.061 134.563 177.527 133.679 180.45C132.795 183.382 132.344 187.742 132.344 193.522Z" fill="#5F6062"/>
<path d="M170.734 150.444C170.734 150.002 171.091 149.645 171.533 149.645H184.145C184.587 149.645 184.944 150.002 184.944 150.444V175.77C184.944 176.212 185.302 176.569 185.744 176.569H200.726C201.168 176.569 201.525 176.212 201.525 175.77V150.444C201.525 150.002 201.882 149.645 202.324 149.645H214.927C215.369 149.645 215.726 150.002 215.726 150.444V219.242C215.726 219.684 215.369 220.041 214.927 220.041H202.324C201.882 220.041 201.525 219.684 201.525 219.242V189.584C201.525 189.143 201.168 188.785 200.726 188.785H185.744C185.302 188.785 184.944 189.143 184.944 189.584V219.242C184.944 219.684 184.587 220.041 184.145 220.041H171.533C171.091 220.041 170.734 219.684 170.734 219.242V150.444Z" fill="#5F6062"/>
<path d="M226.89 183.269C226.448 183.269 226.091 182.978 226.091 182.63C226.091 182.282 226.119 181.634 226.157 181.192C226.157 181.192 226.58 176.4 227.567 174.295C228.545 172.19 229.881 170.498 231.564 169.211C233.238 167.933 235.213 167.012 237.48 166.448C239.756 165.893 242.173 165.611 244.74 165.611C248.747 165.611 252.02 166.006 254.559 166.796C257.089 167.585 259.045 168.703 260.428 170.15C261.81 171.598 262.751 173.317 263.24 175.328C263.738 177.339 263.983 179.52 263.983 181.888V208.99C263.983 209.432 263.992 210.146 264.001 210.587C264.001 210.587 264.095 214.224 264.321 215.606C264.556 216.987 264.998 218.472 265.657 220.041H253.43C252.988 220.041 252.481 219.712 252.292 219.318C252.292 219.318 251.822 218.284 251.587 217.335C251.352 216.386 251.136 215.446 250.938 214.525C250.835 214.525 250.534 214.816 250.27 215.164C250.27 215.164 247.346 219.13 245.267 220.041C243.198 220.962 240.518 221.423 237.226 221.423C234.856 221.423 232.853 220.962 231.207 220.041C229.561 219.13 228.245 217.936 227.257 216.489C226.27 215.042 225.545 213.416 225.085 211.612C224.624 209.807 224.398 208.013 224.398 206.236C224.398 203.746 224.661 201.585 225.188 199.78C225.715 197.976 226.523 196.426 227.605 195.148C228.687 193.869 230.069 192.798 231.743 191.943C233.427 191.088 235.449 190.336 237.809 189.678L244.731 187.818C245.154 187.705 245.841 187.489 246.255 187.338C246.255 187.338 248.963 186.361 249.744 185.44C250.534 184.519 250.929 183.175 250.929 181.399C250.929 179.36 250.449 177.762 249.499 176.616C248.54 175.469 246.922 174.887 244.609 174.887C242.502 174.887 240.922 175.516 239.878 176.757C238.825 178.007 238.298 179.689 238.298 181.784V182.461C238.298 182.903 237.941 183.26 237.499 183.26H226.89V183.269ZM250.948 194.321C250.948 193.879 250.647 193.729 250.289 193.973C250.289 193.973 249.048 194.819 247.995 195.251C246.941 195.674 245.991 195.993 245.135 196.181C242.37 196.773 240.395 197.76 239.22 199.141C238.035 200.523 237.442 202.402 237.442 204.761C237.442 206.8 237.837 208.548 238.627 209.986C239.417 211.424 240.734 212.147 242.577 212.147C243.499 212.147 244.449 212.006 245.436 211.706C246.424 211.405 247.327 210.935 248.154 210.277C248.973 209.62 249.65 208.783 250.176 207.759C250.703 206.735 250.966 205.475 250.966 203.962V194.321H250.948Z" fill="#5F6062"/>
<path d="M300.999 186.126C300.557 186.126 300.191 185.769 300.172 185.327C300.172 185.327 300.115 183.607 299.946 182.329C299.777 181.051 299.485 179.896 299.062 178.881C298.629 177.866 298.009 177.039 297.181 176.418C296.363 175.798 295.319 175.479 294.077 175.479C292.366 175.479 291.002 175.864 289.986 176.616C288.971 177.368 288.19 178.486 287.673 179.971C287.146 181.446 286.779 183.335 286.582 185.637C286.384 187.94 286.281 190.599 286.281 193.625C286.281 196.914 286.384 199.724 286.582 202.055C286.779 204.385 287.137 206.312 287.673 207.825C288.19 209.338 288.933 210.437 289.892 211.123C290.852 211.819 292.084 212.157 293.598 212.157C295.902 212.157 297.576 211.17 298.629 209.197C299.683 207.223 300.209 204.066 300.209 199.733H312.436C312.878 199.733 313.188 200.091 313.132 200.523C313.132 200.523 311.664 212.053 308.542 215.803C305.42 219.553 300.238 221.423 293.005 221.423C289.582 221.423 286.601 220.962 284.08 220.041C281.541 219.13 279.434 217.598 277.76 215.455C276.077 213.322 274.817 210.456 273.961 206.875C273.105 203.295 272.682 198.841 272.682 193.512C272.682 188.052 273.208 183.532 274.262 179.952C275.315 176.362 276.792 173.505 278.701 171.372C280.61 169.239 282.876 167.745 285.51 166.89C288.143 166.034 291.04 165.611 294.2 165.611C300.51 165.611 305.269 167.453 308.457 171.137C311.646 174.821 313.244 179.811 313.244 186.117H300.999V186.126Z" fill="#5F6062"/>
<path d="M334.631 149.645C335.073 149.645 335.43 150.002 335.43 150.444V186.013C335.43 186.455 335.478 186.812 335.525 186.812C335.572 186.812 335.825 186.521 336.07 186.154L348.879 167.651C349.133 167.294 349.698 166.993 350.13 166.993H363.532C363.974 166.993 364.124 167.284 363.861 167.641L349.509 187.244C349.246 187.601 349.208 188.203 349.425 188.588L366.231 219.327C366.438 219.712 366.25 220.032 365.817 220.032H352.416C351.973 220.032 351.447 219.712 351.249 219.327L340.641 198.953C340.434 198.568 340.048 198.531 339.785 198.878L335.929 203.915C335.666 204.263 335.44 204.911 335.44 205.353V219.233C335.44 219.675 335.083 220.032 334.64 220.032H322.621C322.179 220.032 321.822 219.675 321.822 219.233V150.435C321.822 149.993 322.179 149.636 322.621 149.636H334.631V149.645Z" fill="#5F6062"/>
<path d="M384.082 195.599C383.64 195.599 383.282 195.956 383.282 196.397V199.038C383.282 199.48 383.292 200.194 383.311 200.636C383.311 200.636 383.395 202.938 383.621 204.423C383.856 205.898 384.232 207.214 384.749 208.36C385.276 209.516 385.972 210.428 386.828 211.123C387.684 211.819 388.737 212.157 389.988 212.157C392.283 212.157 393.966 211.339 395.019 209.695C396.073 208.05 396.797 205.551 397.192 202.205H408.628C409.07 202.205 409.371 202.562 409.296 202.994C409.296 202.994 407.528 213.134 404.499 216.461C401.471 219.778 396.703 221.432 390.185 221.432C385.257 221.432 381.411 220.586 378.636 218.867C375.871 217.156 373.83 214.939 372.523 212.204C371.207 209.479 370.398 206.424 370.106 203.041C369.805 199.658 369.655 196.322 369.655 193.033C369.655 189.49 369.899 186.07 370.388 182.781C370.887 179.492 371.874 176.569 373.351 174.003C374.827 171.438 376.962 169.408 379.718 167.895C382.483 166.382 386.16 165.63 390.768 165.63C394.709 165.63 397.954 166.269 400.484 167.557C403.023 168.835 405.007 170.649 406.456 172.979C407.904 175.319 408.891 178.138 409.409 181.456C409.935 184.782 410.199 188.475 410.199 192.554V194.809C410.199 195.251 409.841 195.608 409.399 195.608H384.082V195.599ZM396.393 187.508C396.835 187.508 397.173 187.15 397.154 186.709C397.154 186.709 396.994 183.683 396.797 182.132C396.599 180.591 396.261 179.275 395.762 178.195C395.273 177.105 394.577 176.287 393.684 175.723C392.8 175.169 391.662 174.887 390.279 174.887C388.897 174.887 387.768 175.197 386.875 175.817C385.991 176.447 385.285 177.264 384.749 178.289C384.232 179.304 383.856 180.441 383.621 181.691C383.386 182.94 383.273 184.19 383.273 185.431V186.699C383.273 187.141 383.63 187.498 384.072 187.498H396.393V187.508Z" fill="#5F6062"/>
<path d="M418.305 167.801C418.305 167.359 418.663 167.002 419.105 167.002H430.541C430.983 167.002 431.34 167.359 431.34 167.801V173.299C431.34 173.74 431.378 174.097 431.434 174.097C431.491 174.097 431.726 173.797 431.97 173.43C431.97 173.43 434.594 169.474 436.56 167.933C438.535 166.392 440.933 165.621 443.764 165.621C444.159 165.621 444.573 165.64 444.996 165.668C445.429 165.706 445.842 165.753 446.237 165.809V178.026C446.237 178.467 445.88 178.796 445.438 178.759C445.438 178.759 444.808 178.712 444.112 178.674C443.416 178.646 442.711 178.627 441.986 178.627C440.801 178.627 439.616 178.787 438.432 179.116C437.247 179.445 436.165 179.99 435.177 180.751C434.19 181.503 433.4 182.489 432.807 183.702C432.215 184.914 431.914 186.417 431.914 188.184V219.233C431.914 219.675 431.557 220.032 431.115 220.032H419.095C418.653 220.032 418.296 219.675 418.296 219.233V167.801H418.305Z" fill="#5F6062"/>
<path d="M223.796 137.241C223.655 138.81 223.194 140.013 222.413 140.831C221.623 141.658 220.654 142.231 219.498 142.569C218.341 142.908 217.071 143.067 215.66 143.039C214.259 143.02 212.867 142.945 211.494 142.823C210.638 142.748 209.754 142.654 208.842 142.541C207.93 142.428 207.036 142.259 206.162 142.043C205.287 141.827 204.469 141.536 203.698 141.178C202.926 140.821 202.259 140.38 201.704 139.835C201.149 139.29 200.726 138.641 200.444 137.88C200.161 137.119 200.058 136.207 200.152 135.164C200.293 133.595 200.754 132.392 201.535 131.574C202.325 130.757 203.303 130.174 204.478 129.836C205.654 129.497 206.952 129.347 208.381 129.375C209.811 129.403 211.231 129.479 212.651 129.601C213.46 129.667 214.316 129.761 215.2 129.873C216.093 129.986 216.968 130.146 217.833 130.362C218.689 130.588 219.507 130.86 220.269 131.217C221.021 131.565 221.689 132.016 222.244 132.552C222.799 133.097 223.222 133.754 223.504 134.506C223.786 135.296 223.89 136.198 223.796 137.241ZM211.739 139.882C212.961 139.994 214.156 140.07 215.303 140.117C216.45 140.163 217.485 140.098 218.407 139.929C219.328 139.759 220.071 139.459 220.645 139.026C221.219 138.594 221.548 137.936 221.632 137.053C221.708 136.198 221.491 135.493 221.002 134.957C220.513 134.422 219.827 133.989 218.962 133.66C218.087 133.332 217.081 133.097 215.933 132.946C214.795 132.796 213.61 132.664 212.388 132.552C211.118 132.439 209.895 132.354 208.71 132.307C207.525 132.26 206.472 132.317 205.541 132.486C204.61 132.655 203.867 132.965 203.284 133.407C202.71 133.848 202.372 134.506 202.306 135.361C202.23 136.235 202.437 136.95 202.926 137.476C203.425 138.002 204.111 138.434 204.995 138.754C205.88 139.083 206.914 139.327 208.09 139.477C209.256 139.637 210.478 139.778 211.739 139.882Z" fill="#FFEF00"/>
<path d="M202.4 124.752L203.021 121.604L225.037 125.936L224.417 129.084L202.4 124.752Z" fill="#FFEF00"/>
<path d="M204.817 114.245L205.711 111.163L227.257 117.403L226.364 120.485L204.817 114.245Z" fill="#FFD200"/>
<path d="M230.163 110.562C229.561 112.122 228.743 113.212 227.699 113.823C226.655 114.433 225.498 114.743 224.219 114.753C222.94 114.762 221.595 114.556 220.157 114.114C218.727 113.682 217.326 113.202 215.953 112.676C215.106 112.347 214.232 111.999 213.329 111.614C212.426 111.229 211.561 110.806 210.742 110.336C209.905 109.857 209.153 109.321 208.466 108.739C207.78 108.156 207.234 107.498 206.821 106.784C206.407 106.06 206.172 105.271 206.106 104.416C206.031 103.551 206.2 102.602 206.595 101.559C207.187 99.9896 208.015 98.9089 209.068 98.2886C210.112 97.6778 211.278 97.3771 212.576 97.3677C213.874 97.3677 215.247 97.5932 216.696 98.0255C218.153 98.4672 219.583 98.9558 221.003 99.5009C221.802 99.811 222.649 100.149 223.533 100.525C224.407 100.901 225.263 101.324 226.072 101.794C226.89 102.264 227.643 102.799 228.31 103.382C228.988 103.965 229.533 104.613 229.937 105.327C230.351 106.041 230.586 106.831 230.662 107.695C230.737 108.569 230.568 109.519 230.163 110.562ZM217.081 109.753C218.294 110.223 219.489 110.646 220.655 111.031C221.812 111.407 222.893 111.652 223.881 111.746C224.868 111.84 225.724 111.755 226.439 111.473C227.154 111.201 227.68 110.627 228.019 109.744C228.348 108.889 228.339 108.109 227.991 107.413C227.643 106.718 227.069 106.079 226.27 105.487C225.47 104.904 224.511 104.369 223.392 103.871C222.273 103.382 221.106 102.903 219.884 102.442C218.624 101.963 217.392 101.521 216.197 101.127C215.003 100.732 213.912 100.488 212.915 100.384C211.918 100.281 211.053 100.384 210.338 100.666C209.614 100.957 209.087 101.521 208.767 102.376C208.429 103.25 208.438 104.03 208.786 104.716C209.134 105.402 209.717 106.041 210.526 106.633C211.335 107.226 212.313 107.771 213.47 108.278C214.617 108.776 215.821 109.265 217.081 109.753Z" fill="#FFD200"/>
<path d="M236.304 97.2079C235.514 98.6833 234.555 99.6607 233.445 100.131C232.336 100.6 231.141 100.77 229.881 100.61C228.611 100.459 227.295 100.084 225.94 99.4633C224.577 98.8525 223.241 98.1947 221.953 97.5086C221.153 97.0764 220.326 96.6159 219.479 96.1272C218.633 95.6386 217.833 95.0935 217.072 94.5109C216.31 93.9376 215.633 93.308 215.021 92.6502C214.42 91.983 213.959 91.2594 213.63 90.4982C213.319 89.737 213.178 88.9194 213.225 88.0548C213.263 87.1903 213.554 86.2693 214.081 85.2826C214.88 83.8072 215.83 82.8299 216.94 82.36C218.05 81.8901 219.254 81.7304 220.533 81.8901C221.821 82.0499 223.157 82.4446 224.539 83.0742C225.922 83.7038 227.285 84.3711 228.621 85.0853C229.383 85.4894 230.173 85.931 231 86.4197C231.828 86.899 232.618 87.4346 233.361 88.0079C234.104 88.5811 234.781 89.2013 235.383 89.8685C235.975 90.5358 236.436 91.2406 236.756 92.0112C237.076 92.7723 237.207 93.5805 237.17 94.4451C237.123 95.3096 236.831 96.2306 236.304 97.2079ZM223.429 94.7458C224.577 95.366 225.715 95.9393 226.815 96.4655C227.915 96.9918 228.95 97.3677 229.919 97.5838C230.887 97.8094 231.743 97.8282 232.486 97.6402C233.229 97.4523 233.831 96.9542 234.273 96.1272C234.706 95.3284 234.8 94.5579 234.546 93.8249C234.292 93.0825 233.803 92.3777 233.088 91.701C232.364 91.015 231.489 90.3572 230.436 89.7276C229.383 89.1074 228.282 88.4777 227.135 87.8669C225.94 87.2279 224.774 86.6358 223.636 86.0908C222.498 85.5457 221.445 85.1604 220.467 84.9349C219.489 84.7094 218.624 84.6906 217.871 84.8879C217.119 85.0759 216.526 85.5833 216.094 86.3915C215.652 87.2185 215.558 87.9891 215.821 88.7127C216.084 89.4363 216.573 90.1505 217.307 90.8271C218.031 91.5131 218.934 92.1803 220.025 92.8287C221.106 93.4677 222.244 94.1068 223.429 94.7458Z" fill="#FDBB30"/>
<path d="M243.734 85.1229C242.775 86.5043 241.712 87.3595 240.555 87.7072C239.398 88.0455 238.195 88.0737 236.953 87.7823C235.712 87.491 234.452 86.9648 233.163 86.1942C231.875 85.433 230.633 84.6342 229.42 83.7978C228.677 83.281 227.906 82.7265 227.125 82.1439C226.335 81.5613 225.602 80.9316 224.915 80.2738C224.229 79.616 223.627 78.9112 223.091 78.1782C222.564 77.4452 222.188 76.684 221.962 75.8852C221.736 75.0865 221.689 74.2689 221.83 73.4137C221.971 72.5586 222.357 71.6752 222.997 70.7543C223.946 69.3728 225.009 68.5177 226.166 68.1794C227.323 67.8317 228.536 67.8129 229.796 68.123C231.056 68.4331 232.345 68.9781 233.643 69.7487C234.95 70.5193 236.22 71.3463 237.461 72.2109C238.176 72.6995 238.909 73.2352 239.671 73.799C240.442 74.3723 241.157 74.9831 241.834 75.6409C242.521 76.2987 243.113 76.9847 243.631 77.7083C244.148 78.4319 244.515 79.1931 244.74 79.9919C244.975 80.7907 245.013 81.6083 244.872 82.4634C244.759 83.3186 244.364 84.2019 243.734 85.1229ZM231.216 81.2136C232.288 81.956 233.342 82.6514 234.386 83.2998C235.42 83.9482 236.408 84.4369 237.339 84.7564C238.279 85.0853 239.126 85.1981 239.887 85.1041C240.649 85.0007 241.298 84.5684 241.834 83.7978C242.361 83.0461 242.53 82.2943 242.361 81.5331C242.192 80.7719 241.787 80.0107 241.157 79.2495C240.518 78.4883 239.718 77.7459 238.74 76.9941C237.771 76.2517 236.746 75.5093 235.674 74.7669C234.564 74.0058 233.483 73.2822 232.411 72.6149C231.339 71.9477 230.332 71.4403 229.392 71.102C228.451 70.773 227.595 70.6603 226.824 70.7637C226.053 70.8764 225.414 71.2993 224.887 72.0511C224.36 72.8217 224.172 73.5829 224.351 74.3347C224.53 75.0865 224.934 75.8383 225.583 76.6088C226.232 77.3794 227.05 78.1406 228.047 78.9018C229.053 79.6818 230.107 80.443 231.216 81.2136Z" fill="#FDBB30"/>
<path d="M252.509 73.8365C251.409 75.1052 250.271 75.8476 249.076 76.0543C247.891 76.2705 246.687 76.1671 245.493 75.7348C244.289 75.3119 243.085 74.6447 241.891 73.752C240.696 72.8498 239.549 71.9289 238.439 70.9609C237.753 70.3595 237.047 69.7299 236.333 69.0626C235.618 68.3954 234.96 67.7 234.339 66.967C233.728 66.234 233.201 65.4728 232.749 64.6929C232.307 63.9129 232.016 63.1047 231.875 62.2965C231.734 61.4789 231.781 60.652 232.016 59.825C232.251 58.9886 232.731 58.1523 233.464 57.3065C234.565 56.0378 235.712 55.2954 236.906 55.0793C238.091 54.8632 239.305 54.9759 240.518 55.4176C241.74 55.8593 242.954 56.5359 244.167 57.4475C245.38 58.359 246.556 59.3175 247.703 60.3043C248.352 60.8681 249.029 61.4789 249.725 62.1274C250.421 62.7852 251.07 63.4712 251.681 64.1948C252.283 64.9184 252.8 65.6702 253.242 66.4502C253.675 67.2302 253.957 68.0289 254.108 68.8371C254.249 69.6547 254.202 70.4817 253.967 71.3086C253.731 72.1544 253.242 72.9908 252.509 73.8365ZM240.499 68.5928C241.486 69.4479 242.455 70.2561 243.414 71.0173C244.374 71.7785 245.305 72.3611 246.198 72.7934C247.092 73.2257 247.919 73.423 248.691 73.4137C249.452 73.4043 250.148 73.0377 250.769 72.3329C251.371 71.6469 251.625 70.9045 251.55 70.1433C251.456 69.3728 251.145 68.574 250.59 67.747C250.035 66.92 249.321 66.0837 248.437 65.2473C247.553 64.4015 246.621 63.5464 245.625 62.7006C244.609 61.8172 243.593 60.9809 242.615 60.2009C241.628 59.4209 240.678 58.8101 239.784 58.3778C238.881 57.9455 238.044 57.7388 237.264 57.7576C236.492 57.7858 235.806 58.1429 235.204 58.8289C234.593 59.5337 234.329 60.2667 234.423 61.0373C234.518 61.7984 234.837 62.5972 235.402 63.4336C235.956 64.2606 236.69 65.1157 237.602 65.9803C238.515 66.8261 239.483 67.7094 240.499 68.5928Z" fill="#F1645D"/>
<path d="M240.979 50.5123L243.405 48.116L260.202 65.0125L257.775 67.4182L240.979 50.5123Z" fill="#F26531"/>
<path d="M266.888 59.6465C265.534 60.8024 264.227 61.3944 262.938 61.432C261.659 61.4696 260.418 61.1689 259.233 60.5299C258.039 59.9002 256.891 59.0075 255.781 57.8892C254.672 56.7615 253.609 55.6056 252.603 54.4216C251.972 53.6886 251.342 52.918 250.703 52.1098C250.054 51.3016 249.471 50.4653 248.954 49.6007C248.427 48.7361 247.994 47.8622 247.656 46.9694C247.317 46.0767 247.138 45.1933 247.11 44.3194C247.091 43.4454 247.279 42.5902 247.646 41.7539C248.022 40.9175 248.662 40.1187 249.565 39.3481C250.919 38.1923 252.226 37.6002 253.505 37.5626C254.784 37.525 256.035 37.8351 257.239 38.4836C258.443 39.1414 259.609 40.0435 260.738 41.19C261.866 42.3365 262.948 43.5206 263.992 44.7422C264.584 45.4282 265.196 46.18 265.826 46.9694C266.456 47.7682 267.03 48.5858 267.547 49.4409C268.064 50.2961 268.487 51.1701 268.816 52.044C269.146 52.9274 269.324 53.8013 269.343 54.6847C269.362 55.5586 269.174 56.4138 268.807 57.2502C268.421 58.0771 267.791 58.8759 266.888 59.6465ZM255.132 52.2602C256.026 53.3127 256.919 54.3088 257.803 55.2579C258.697 56.1977 259.572 56.9683 260.437 57.5603C261.302 58.1523 262.139 58.4906 262.948 58.6034C263.757 58.7162 264.537 58.4436 265.29 57.7952C266.033 57.1656 266.418 56.442 266.446 55.6244C266.475 54.8069 266.277 53.9235 265.826 52.965C265.393 52.0158 264.763 51.0291 263.973 50.0048C263.174 48.9805 262.337 47.9468 261.434 46.8942C260.503 45.8041 259.581 44.7704 258.669 43.8025C257.756 42.8346 256.863 42.0452 255.988 41.4438C255.104 40.8423 254.258 40.4946 253.44 40.4006C252.621 40.2973 251.841 40.5698 251.107 41.19C250.345 41.8384 249.96 42.562 249.941 43.3796C249.922 44.1972 250.129 45.0805 250.581 46.0391C251.032 46.9976 251.671 48.0031 252.49 49.0556C253.336 50.0987 254.211 51.1701 255.132 52.2602Z" fill="#F26531"/>
<path d="M258.556 33.3808L261.472 31.2476L276.331 51.6305L273.416 53.7544L258.556 33.3808Z" fill="#F05133"/>
<path d="M269.211 26.0885L272.296 24.1996L285.482 45.7102L282.406 47.5991L269.211 26.0885Z" fill="#F05133"/>
<path d="M293.617 41.8573C291.943 42.7031 290.457 42.9944 289.131 42.7219C287.805 42.4494 286.611 41.8385 285.548 40.8894C284.476 39.9403 283.516 38.7468 282.651 37.3184C281.786 35.89 280.987 34.4428 280.244 32.9768C279.783 32.0746 279.322 31.1255 278.861 30.1294C278.4 29.1426 278.005 28.1371 277.676 27.1222C277.356 26.1073 277.121 25.0924 276.99 24.0962C276.858 23.1001 276.896 22.1416 277.084 21.2394C277.281 20.3373 277.676 19.5103 278.269 18.7397C278.861 17.9691 279.708 17.3113 280.817 16.7381C282.491 15.8829 283.987 15.601 285.313 15.8735C286.639 16.1554 287.833 16.7757 288.915 17.7436C289.996 18.7115 290.974 19.9238 291.84 21.3804C292.714 22.837 293.533 24.3218 294.304 25.8254C294.736 26.6805 295.178 27.5921 295.63 28.5694C296.081 29.5373 296.457 30.5241 296.787 31.5296C297.106 32.5351 297.332 33.5312 297.454 34.518C297.586 35.5047 297.548 36.4538 297.341 37.356C297.144 38.2581 296.749 39.0945 296.166 39.8557C295.583 40.6263 294.736 41.2841 293.617 41.8573ZM283.375 31.3792C284.043 32.6761 284.711 33.9259 285.388 35.11C286.065 36.2941 286.771 37.2996 287.523 38.1172C288.266 38.9441 289.046 39.4986 289.846 39.8087C290.645 40.1188 291.52 40.0342 292.451 39.555C293.363 39.0945 293.937 38.4461 294.172 37.6097C294.407 36.7733 294.417 35.8148 294.191 34.7341C293.965 33.644 293.58 32.4787 293.015 31.2383C292.451 29.9884 291.84 28.7198 291.181 27.4229C290.495 26.0791 289.808 24.7916 289.112 23.57C288.416 22.3483 287.692 21.324 286.94 20.4876C286.197 19.6607 285.407 19.0968 284.598 18.7961C283.78 18.4954 282.915 18.58 282.002 19.0404C281.071 19.5197 280.488 20.1775 280.262 20.9951C280.037 21.8221 280.037 22.79 280.262 23.8801C280.488 24.9796 280.893 26.1637 281.485 27.4511C282.059 28.7292 282.689 30.0448 283.375 31.3792Z" fill="#EF3E42"/>
<path d="M307.79 35.9369C305.919 36.5571 304.32 36.6229 302.975 36.1249C301.639 35.6362 300.492 34.8092 299.533 33.6627C298.573 32.5069 297.755 31.1254 297.078 29.4997C296.41 27.8739 295.799 26.2482 295.254 24.6131C294.915 23.5981 294.586 22.5362 294.257 21.4273C293.927 20.3278 293.674 19.219 293.495 18.1101C293.316 17.0012 293.232 15.9205 293.26 14.8586C293.288 13.7967 293.467 12.8099 293.815 11.8984C294.163 10.9868 294.708 10.1881 295.432 9.47386C296.166 8.76905 297.163 8.20521 298.404 7.79172C300.276 7.17149 301.875 7.10571 303.21 7.59438C304.545 8.09244 305.702 8.92881 306.671 10.1035C307.64 11.2782 308.467 12.6972 309.154 14.3417C309.831 15.9957 310.452 17.659 311.016 19.3505C311.345 20.3091 311.655 21.3334 311.975 22.4141C312.286 23.4948 312.53 24.5849 312.709 25.675C312.887 26.7745 312.963 27.8458 312.934 28.8889C312.906 29.9414 312.718 30.9187 312.37 31.8303C312.022 32.7418 311.486 33.55 310.753 34.2548C310.028 34.9596 309.041 35.5234 307.79 35.9369ZM298.771 23.4384C299.26 24.895 299.749 26.2952 300.276 27.639C300.793 28.9828 301.376 30.1293 302.025 31.1067C302.674 32.0652 303.389 32.7794 304.179 33.2211C304.969 33.6627 305.881 33.7097 306.925 33.362C307.95 33.0237 308.646 32.4317 309.022 31.6047C309.398 30.7684 309.558 29.7722 309.492 28.6069C309.436 27.4417 309.201 26.1636 308.825 24.7822C308.43 23.4008 307.997 21.9724 307.508 20.5252C307.009 19.0122 306.483 17.5744 305.956 16.1836C305.429 14.8022 304.837 13.6275 304.179 12.6408C303.53 11.6634 302.796 10.9493 302.006 10.5076C301.207 10.0659 300.294 10.0189 299.269 10.3572C298.225 10.7049 297.52 11.2876 297.163 12.1145C296.796 12.9415 296.655 13.947 296.721 15.1217C296.787 16.2964 297.022 17.5932 297.417 19.0216C297.821 20.4688 298.272 21.9348 298.771 23.4384Z" fill="#EF3E42"/>
<path d="M323.157 32.0651C321.22 32.4128 319.621 32.2437 318.37 31.5577C317.12 30.8716 316.104 29.8943 315.323 28.6163C314.543 27.3382 313.931 25.844 313.508 24.1431C313.075 22.4422 312.709 20.7319 312.417 19.0403C312.229 17.9878 312.05 16.8883 311.89 15.7512C311.731 14.6142 311.646 13.4865 311.627 12.3588C311.608 11.2311 311.693 10.1504 311.862 9.09788C312.041 8.05476 312.37 7.10562 312.85 6.25986C313.32 5.40469 313.969 4.69049 314.797 4.08906C315.624 3.49702 316.687 3.09293 317.985 2.858C319.922 2.51969 321.521 2.68884 322.772 3.36546C324.023 4.05147 325.038 5.04759 325.828 6.35383C326.609 7.66007 327.22 9.18245 327.662 10.9116C328.095 12.6407 328.462 14.3886 328.772 16.1365C328.951 17.1326 329.12 18.1852 329.28 19.3035C329.44 20.4123 329.515 21.5212 329.534 22.6395C329.553 23.7484 329.468 24.8197 329.289 25.8534C329.111 26.8872 328.781 27.8269 328.302 28.6821C327.832 29.5278 327.183 30.2514 326.346 30.8435C325.518 31.4261 324.455 31.8396 323.157 32.0651ZM316.057 18.3825C316.329 19.8955 316.621 21.3521 316.941 22.7523C317.261 24.1619 317.665 25.3836 318.173 26.4361C318.671 27.4886 319.273 28.2874 319.997 28.8418C320.712 29.3963 321.606 29.5842 322.697 29.3869C323.759 29.1989 324.53 28.7196 325.02 27.9491C325.509 27.1785 325.819 26.2199 325.932 25.064C326.035 23.8988 325.998 22.6113 325.819 21.1829C325.631 19.7545 325.405 18.2885 325.142 16.7755C324.86 15.2156 324.568 13.7026 324.239 12.2554C323.919 10.8082 323.505 9.55834 322.998 8.48704C322.49 7.42513 321.878 6.61696 321.154 6.06251C320.43 5.50807 319.537 5.32012 318.474 5.51746C317.383 5.70541 316.602 6.19407 316.123 6.95526C315.643 7.72585 315.351 8.69378 315.248 9.86845C315.144 11.0431 315.182 12.3588 315.38 13.8248C315.549 15.3002 315.784 16.8225 316.057 18.3825Z" fill="#D31245"/>
<path d="M330.766 0.818783L334.97 0.508667L337.143 29.8568L332.939 30.1669L330.766 0.818783Z" fill="#D31245"/>
<path d="M345.315 0.236206L349.529 0.320779L348.927 29.744L344.713 29.6594L345.315 0.236206Z" fill="#B30838"/>
<path d="M358.105 31.0315C356.046 30.806 354.484 30.167 353.431 29.1145C352.378 28.0525 351.635 26.7651 351.221 25.2427C350.807 23.7203 350.638 22.0382 350.704 20.1963C350.779 18.3544 350.911 16.5313 351.108 14.7364C351.221 13.6181 351.372 12.4622 351.55 11.2688C351.719 10.0659 351.964 8.91003 352.274 7.76354C352.585 6.62646 352.989 5.55516 353.478 4.55903C353.958 3.55351 354.569 2.69834 355.303 1.97474C356.036 1.26054 356.902 0.724891 357.908 0.367789C358.924 0.0200852 360.109 -0.0832859 361.482 0.0670725C363.541 0.283213 365.102 0.931627 366.156 1.98414C367.219 3.03665 367.943 4.34289 368.357 5.88406C368.77 7.43463 368.94 9.14496 368.864 11.015C368.789 12.8851 368.658 14.7552 368.451 16.6159C368.338 17.6778 368.197 18.7867 368.027 19.952C367.858 21.1173 367.623 22.2637 367.313 23.3914C367.002 24.5191 366.607 25.5716 366.118 26.5584C365.639 27.5545 365.037 28.4002 364.303 29.1145C363.579 29.8287 362.704 30.3643 361.698 30.712C360.663 31.0785 359.478 31.1819 358.105 31.0315ZM354.964 15.1593C354.795 16.7569 354.654 18.3168 354.569 19.8204C354.475 21.324 354.522 22.6866 354.72 23.8895C354.917 25.1017 355.293 26.0885 355.848 26.8591C356.403 27.6297 357.259 28.0807 358.406 28.1935C359.535 28.3251 360.457 28.0619 361.171 27.4323C361.895 26.8027 362.488 25.9193 362.939 24.7822C363.391 23.6452 363.729 22.3295 363.965 20.8353C364.2 19.3411 364.397 17.7906 364.576 16.193C364.755 14.5391 364.896 12.9321 364.99 11.3815C365.093 9.83097 365.046 8.44016 364.849 7.2185C364.651 5.99684 364.275 5.00071 363.701 4.23012C363.127 3.45954 362.281 3.00846 361.162 2.88629C360.005 2.76413 359.083 3.01786 358.369 3.64748C357.654 4.27711 357.08 5.16986 356.629 6.31634C356.177 7.47222 355.829 8.81606 355.594 10.3478C355.359 11.9078 355.143 13.5054 354.964 15.1593Z" fill="#B30838"/>
<path d="M375.514 3.33728L379.633 4.21124L373.529 32.9955L369.41 32.1215L375.514 3.33728Z" fill="#711471"/>
<path d="M389.621 6.80493L393.655 8.03599L385.022 36.1718L380.997 34.9314L389.621 6.80493Z" fill="#711471"/>
<path d="M393.928 40.1093C391.915 39.2917 390.533 38.2016 389.762 36.8296C389 35.467 388.633 33.954 388.652 32.3C388.68 30.6461 388.991 28.9076 389.593 27.0751C390.194 25.2332 390.843 23.4383 391.568 21.681C392.01 20.5909 392.489 19.4726 393.006 18.3167C393.524 17.1608 394.107 16.0519 394.756 14.9994C395.395 13.9469 396.11 12.979 396.881 12.105C397.652 11.2404 398.518 10.545 399.458 10.0282C400.399 9.52071 401.433 9.22939 402.543 9.16361C403.653 9.09783 404.894 9.33277 406.23 9.87782C408.233 10.6954 409.625 11.7949 410.386 13.1575C411.148 14.5295 411.515 16.0519 411.477 17.7246C411.44 19.3974 411.12 21.1735 410.509 23.0436C409.897 24.9043 409.22 26.7462 408.487 28.5599C408.063 29.5936 407.603 30.6743 407.095 31.802C406.577 32.9297 406.004 34.0104 405.374 35.0535C404.734 36.0966 404.029 37.0457 403.267 37.9103C402.486 38.7655 401.631 39.4515 400.7 39.9683C399.759 40.4758 398.725 40.7671 397.615 40.8329C396.486 40.8893 395.264 40.6543 393.928 40.1093ZM395.339 23.2127C394.709 24.7821 394.116 26.3045 393.59 27.7893C393.063 29.2835 392.715 30.6649 392.564 31.9335C392.414 33.2022 392.508 34.3111 392.847 35.2414C393.185 36.1718 393.919 36.8672 395.038 37.3276C396.138 37.7693 397.145 37.7881 398.057 37.3558C398.96 36.9329 399.806 36.2093 400.587 35.1944C401.367 34.1795 402.091 32.9485 402.759 31.52C403.427 30.0822 404.076 28.588 404.715 27.0187C405.374 25.4023 405.976 23.8236 406.521 22.2824C407.067 20.7506 407.424 19.341 407.574 18.0536C407.725 16.7661 407.631 15.6478 407.283 14.7081C406.925 13.7683 406.211 13.0729 405.101 12.6219C403.982 12.1614 402.975 12.152 402.073 12.5843C401.179 13.0165 400.333 13.7495 399.552 14.7739C398.762 15.8076 398.029 17.0574 397.351 18.5328C396.665 20.0458 395.997 21.5964 395.339 23.2127Z" fill="#7E0C6E"/>
<path d="M419.509 17.283L423.393 19.3692L408.778 46.5183L404.885 44.432L419.509 17.283Z" fill="#9370B1"/>
<path d="M418.804 53.604C416.942 52.3072 415.785 50.8788 415.324 49.3094C414.854 47.74 414.835 46.1143 415.23 44.4321C415.634 42.7594 416.359 41.0491 417.393 39.32C418.437 37.5814 419.519 35.8993 420.647 34.2736C421.352 33.268 422.105 32.2343 422.895 31.1724C423.694 30.1105 424.541 29.1144 425.434 28.1934C426.328 27.2631 427.277 26.4455 428.274 25.7313C429.262 25.0265 430.306 24.5191 431.378 24.2183C432.45 23.9082 433.569 23.8518 434.726 24.0398C435.883 24.2277 437.077 24.754 438.319 25.6186C440.181 26.9154 441.347 28.3532 441.808 29.9226C442.278 31.4919 442.287 33.1271 441.874 34.8374C441.45 36.5383 440.717 38.2675 439.654 40.0342C438.601 41.7915 437.482 43.5206 436.315 45.1933C435.648 46.1519 434.924 47.148 434.152 48.1817C433.372 49.2154 432.535 50.1927 431.651 51.1043C430.757 52.0252 429.826 52.824 428.839 53.5194C427.861 54.2148 426.826 54.7129 425.745 55.023C424.663 55.3237 423.553 55.3895 422.396 55.1922C421.24 54.9948 420.036 54.4592 418.804 53.604ZM424.136 36.6981C423.13 38.1547 422.189 39.5737 421.305 40.9739C420.412 42.3741 419.763 43.7085 419.312 44.9678C418.86 46.227 418.71 47.3829 418.832 48.4072C418.964 49.441 419.556 50.3243 420.591 51.0479C421.606 51.7527 422.622 51.9971 423.647 51.7715C424.672 51.546 425.707 51.0103 426.732 50.1458C427.757 49.2906 428.782 48.2099 429.789 46.8943C430.804 45.5786 431.811 44.2066 432.817 42.7594C433.861 41.2558 434.839 39.7992 435.751 38.352C436.663 36.9142 437.341 35.5516 437.801 34.2736C438.253 33.0049 438.413 31.8396 438.272 30.8059C438.121 29.7628 437.547 28.8888 436.532 28.184C435.488 27.4604 434.463 27.2161 433.447 27.4416C432.431 27.686 431.406 28.231 430.362 29.0956C429.318 29.9602 428.284 31.069 427.24 32.4223C426.224 33.7755 425.18 35.2039 424.136 36.6981Z" fill="#9370B1"/>
<path d="M433.513 65.6891C431.886 64.1103 430.964 62.5128 430.766 60.887C430.56 59.2613 430.785 57.6543 431.453 56.0568C432.121 54.4686 433.099 52.8992 434.397 51.3487C435.695 49.7981 437.039 48.3133 438.422 46.8849C439.278 46.0015 440.181 45.0994 441.14 44.1785C442.09 43.2575 443.087 42.4117 444.121 41.6411C445.156 40.8706 446.218 40.2127 447.319 39.6677C448.41 39.1226 449.52 38.7937 450.629 38.6622C451.739 38.5306 452.858 38.6528 453.968 39.0193C455.068 39.3952 456.178 40.1094 457.26 41.1525C458.887 42.7313 459.808 44.3288 460.015 45.9546C460.213 47.5803 459.978 49.1967 459.291 50.813C458.605 52.4294 457.598 54.0175 456.282 55.5963C454.955 57.1657 453.582 58.688 452.162 60.154C451.353 60.9904 450.479 61.855 449.548 62.7571C448.617 63.6499 447.629 64.4768 446.613 65.2474C445.588 66.0086 444.535 66.657 443.453 67.1927C442.372 67.7189 441.272 68.0572 440.162 68.1794C439.052 68.311 437.933 68.1888 436.833 67.8223C435.704 67.4558 434.604 66.7416 433.513 65.6891ZM441.478 49.8545C440.256 51.1231 439.099 52.373 437.999 53.6228C436.898 54.8633 436.033 56.0756 435.394 57.2502C434.745 58.4249 434.416 59.5338 434.378 60.5769C434.34 61.62 434.782 62.5786 435.695 63.4619C436.579 64.3171 437.557 64.7212 438.601 64.6554C439.645 64.599 440.754 64.2231 441.902 63.5465C443.058 62.8699 444.234 61.9583 445.438 60.8212C446.651 59.6842 447.864 58.4813 449.087 57.222C450.357 55.9064 451.56 54.6096 452.689 53.3409C453.817 52.0629 454.711 50.8318 455.36 49.6477C456.009 48.4637 456.347 47.3454 456.376 46.2929C456.404 45.2404 455.971 44.2912 455.078 43.4267C454.166 42.5433 453.187 42.1392 452.153 42.2144C451.118 42.2802 450.009 42.6655 448.852 43.3609C447.686 44.0469 446.482 44.9866 445.25 46.1519C443.999 47.2984 442.748 48.5388 441.478 49.8545Z" fill="#5A3F99"/>
<path d="M446.078 80.0389C444.733 78.2064 444.093 76.4773 444.159 74.8516C444.225 73.2164 444.723 71.6658 445.654 70.2092C446.576 68.7526 447.808 67.3712 449.35 66.065C450.893 64.7587 452.463 63.5183 454.062 62.3342C455.05 61.6106 456.094 60.8776 457.194 60.1258C458.285 59.3834 459.413 58.7162 460.561 58.1242C461.708 57.5321 462.874 57.0623 464.041 56.7146C465.216 56.3575 466.354 56.2165 467.473 56.2729C468.593 56.3293 469.665 56.6394 470.699 57.1844C471.724 57.7389 472.693 58.6222 473.587 59.8439C474.931 61.667 475.562 63.3961 475.496 65.0313C475.43 66.6664 474.922 68.2264 473.972 69.7018C473.022 71.1772 471.771 72.5774 470.201 73.9024C468.63 75.2274 467.022 76.4961 465.376 77.7084C464.436 78.3944 463.439 79.1086 462.367 79.8322C461.294 80.5558 460.194 81.2136 459.056 81.7962C457.918 82.3695 456.771 82.8394 455.614 83.1777C454.457 83.516 453.319 83.6569 452.2 83.6005C451.081 83.5442 450.009 83.2434 448.974 82.689C447.94 82.1439 446.971 81.2606 446.078 80.0389ZM456.583 65.7643C455.153 66.8074 453.799 67.8505 452.52 68.8936C451.231 69.9367 450.169 70.9798 449.341 72.0323C448.513 73.0848 447.996 74.1186 447.789 75.1335C447.573 76.1484 447.846 77.1727 448.598 78.197C449.332 79.1932 450.225 79.7476 451.269 79.8698C452.313 79.9825 453.46 79.804 454.711 79.3247C455.962 78.8455 457.279 78.15 458.661 77.2291C460.034 76.3176 461.436 75.3308 462.856 74.2877C464.332 73.207 465.734 72.1263 467.06 71.0644C468.386 69.9931 469.467 68.9312 470.314 67.8693C471.151 66.798 471.677 65.7549 471.875 64.7306C472.072 63.6968 471.809 62.6819 471.075 61.6952C470.323 60.6709 469.42 60.107 468.395 60.0037C467.361 59.9003 466.213 60.0882 464.944 60.5863C463.683 61.075 462.338 61.7892 460.918 62.7289C459.498 63.6686 458.05 64.6836 456.583 65.7643Z" fill="#5A3F99"/>
<path d="M456.028 96.3529C455.012 94.323 454.683 92.5093 455.04 90.9118C455.388 89.3142 456.15 87.8764 457.298 86.5984C458.454 85.3203 459.912 84.1738 461.652 83.1401C463.392 82.1252 465.16 81.1667 466.937 80.2833C468.038 79.7383 469.195 79.1932 470.408 78.6482C471.612 78.1031 472.825 77.6332 474.066 77.2479C475.298 76.8626 476.521 76.5995 477.734 76.4586C478.947 76.3176 480.104 76.3646 481.195 76.6089C482.286 76.8627 483.292 77.3513 484.214 78.0655C485.136 78.7891 485.935 79.8228 486.603 81.1761C487.609 83.2059 487.938 85.0196 487.59 86.6171C487.242 88.2147 486.462 89.6619 485.277 90.9494C484.092 92.2462 482.606 93.4115 480.838 94.4452C479.06 95.4789 477.264 96.4562 475.421 97.3678C474.377 97.8846 473.267 98.4109 472.091 98.9466C470.916 99.4728 469.712 99.9333 468.489 100.309C467.267 100.685 466.063 100.948 464.859 101.08C463.665 101.221 462.517 101.164 461.426 100.911C460.335 100.666 459.329 100.178 458.398 99.454C457.495 98.7492 456.696 97.7061 456.028 96.3529ZM468.828 84.0893C467.248 84.8786 465.734 85.668 464.285 86.4762C462.837 87.2844 461.614 88.1301 460.608 89.0229C459.611 89.9156 458.915 90.846 458.539 91.8139C458.163 92.7818 458.247 93.8344 458.812 94.9714C459.367 96.0803 460.147 96.7851 461.153 97.0765C462.169 97.3678 463.326 97.3866 464.643 97.1328C465.959 96.8791 467.379 96.4186 468.894 95.7514C470.417 95.0842 471.96 94.3606 473.549 93.5806C475.185 92.7631 476.747 91.9455 478.233 91.1185C479.728 90.2915 480.979 89.427 481.994 88.5342C483.01 87.6321 483.697 86.6923 484.082 85.715C484.458 84.7283 484.364 83.6852 483.819 82.5763C483.255 81.4392 482.474 80.7344 481.468 80.4525C480.461 80.1705 479.295 80.1611 477.969 80.4243C476.643 80.6874 475.204 81.1667 473.643 81.8527C472.072 82.5293 470.474 83.2811 468.828 84.0893Z" fill="#233E99"/>
<path d="M492.5 94.1632L494.136 98.6928L462.498 110.139L460.853 105.609L492.5 94.1632Z" fill="#233E99"/>
<path d="M497.738 110.768L498.886 115.439L466.195 123.436L465.057 118.766L497.738 110.768Z" fill="#007DC3"/>
<path d="M467.52 134.469C467.182 132.129 467.445 130.221 468.31 128.755C469.175 127.28 470.389 126.105 471.959 125.212C473.52 124.32 475.336 123.652 477.405 123.201C479.464 122.76 481.524 122.374 483.574 122.083C484.844 121.895 486.17 121.726 487.534 121.585C488.907 121.435 490.27 121.369 491.625 121.388C492.97 121.406 494.267 121.547 495.518 121.792C496.769 122.045 497.898 122.468 498.895 123.07C499.891 123.671 500.738 124.479 501.415 125.485C502.092 126.509 502.544 127.787 502.779 129.357C503.117 131.697 502.863 133.604 501.989 135.07C501.123 136.536 499.891 137.72 498.293 138.622C496.703 139.525 494.85 140.192 492.763 140.652C490.665 141.103 488.568 141.489 486.452 141.789C485.239 141.968 483.969 142.128 482.634 142.269C481.289 142.41 479.953 142.475 478.618 142.457C477.282 142.438 476.003 142.297 474.771 142.043C473.539 141.789 472.42 141.357 471.414 140.756C470.408 140.154 469.571 139.346 468.893 138.331C468.207 137.326 467.755 136.029 467.52 134.469ZM484.214 126.472C482.389 126.735 480.631 127.035 478.928 127.364C477.235 127.693 475.74 128.135 474.461 128.699C473.182 129.263 472.194 129.958 471.508 130.794C470.812 131.621 470.558 132.702 470.746 134.008C470.934 135.286 471.48 136.236 472.383 136.856C473.285 137.476 474.433 137.871 475.815 138.04C477.207 138.218 478.759 138.218 480.48 138.049C482.201 137.88 483.969 137.664 485.794 137.401C487.675 137.128 489.499 136.818 491.239 136.48C492.988 136.142 494.512 135.7 495.81 135.136C497.108 134.572 498.105 133.867 498.791 133.012C499.478 132.157 499.732 131.095 499.553 129.817C499.365 128.501 498.81 127.552 497.916 126.951C497.014 126.34 495.857 125.955 494.456 125.786C493.054 125.616 491.465 125.616 489.697 125.795C487.929 125.974 486.095 126.199 484.214 126.472Z" fill="#007DC3"/>
<path d="M503.033 144.656L503.212 149.458L469.589 150.745L469.401 145.934L503.033 144.656Z" fill="#007DC3"/>
<path d="M502.958 162.868L502.581 167.67L469.025 165.057L469.402 160.255L502.958 162.868Z" fill="#00AFDB"/>
<path d="M501.453 176.71L500.644 181.456L467.464 175.808L468.273 171.062L501.453 176.71Z" fill="#72CCD2"/>
<path d="M498.707 190.327L497.465 194.979L464.953 186.305L466.195 181.653L498.707 190.327Z" fill="#70CDE3"/>
<path d="M460.41 197.187C461.323 194.894 462.564 193.315 464.116 192.451C465.668 191.577 467.389 191.154 469.26 191.173C471.132 191.182 473.126 191.53 475.214 192.206C477.301 192.883 479.352 193.625 481.355 194.433C482.596 194.932 483.875 195.477 485.192 196.059C486.509 196.642 487.769 197.29 488.973 198.023C490.176 198.747 491.267 199.546 492.274 200.42C493.261 201.303 494.051 202.271 494.644 203.342C495.227 204.413 495.565 205.569 495.65 206.838C495.725 208.116 495.462 209.507 494.851 211.039C493.929 213.322 492.697 214.901 491.136 215.775C489.584 216.649 487.863 217.072 485.944 217.034C484.035 217.006 482.023 216.649 479.897 215.963C477.772 215.277 475.674 214.516 473.615 213.689C472.43 213.209 471.207 212.683 469.919 212.119C468.63 211.546 467.398 210.907 466.204 210.184C465.019 209.469 463.937 208.671 462.95 207.797C461.972 206.932 461.191 205.955 460.608 204.893C460.025 203.831 459.686 202.656 459.611 201.397C459.536 200.11 459.79 198.709 460.41 197.187ZM479.624 198.709C477.837 197.995 476.107 197.337 474.405 196.745C472.702 196.153 471.132 195.768 469.684 195.608C468.235 195.439 466.984 195.552 465.922 195.937C464.859 196.332 464.069 197.159 463.552 198.446C463.053 199.687 463.044 200.824 463.523 201.857C464.012 202.891 464.84 203.85 465.997 204.733C467.154 205.616 468.555 206.434 470.191 207.186C471.828 207.938 473.539 208.671 475.317 209.385C477.16 210.127 478.957 210.804 480.706 211.415C482.446 212.025 484.054 212.42 485.521 212.589C486.988 212.768 488.249 212.646 489.311 212.251C490.383 211.847 491.173 211.01 491.672 209.77C492.189 208.492 492.199 207.345 491.7 206.331C491.202 205.316 490.374 204.367 489.198 203.474C488.023 202.581 486.593 201.754 484.91 200.983C483.236 200.203 481.468 199.452 479.624 198.709Z" fill="#70CDE3"/>
<path d="M486.81 225.172L484.393 229.561L453.677 212.674L456.094 208.276L486.81 225.172Z" fill="#70CDE3"/>
<path d="M479.126 238.103L476.305 242.257L447.329 222.522L450.15 218.378L479.126 238.103Z" fill="#00A0AF"/>
<path d="M470.408 250.104L467.22 253.985L440.153 231.722L443.341 227.851L470.408 250.104Z" fill="#00A0AF"/>
<path d="M431.369 239.992C433.137 238.263 434.905 237.323 436.664 237.145C438.441 236.966 440.181 237.267 441.893 238.037C443.604 238.799 445.278 239.917 446.924 241.373C448.561 242.83 450.141 244.324 451.655 245.875C452.595 246.824 453.545 247.839 454.514 248.891C455.483 249.963 456.376 251.062 457.185 252.199C457.994 253.346 458.68 254.52 459.235 255.733C459.79 256.935 460.119 258.138 460.232 259.351C460.345 260.572 460.176 261.766 459.743 262.959C459.31 264.153 458.502 265.327 457.317 266.474C455.558 268.203 453.79 269.152 452.022 269.331C450.244 269.5 448.495 269.19 446.764 268.4C445.025 267.611 443.322 266.464 441.658 264.989C439.984 263.504 438.375 261.973 436.824 260.384C435.93 259.482 435.018 258.505 434.068 257.462C433.128 256.428 432.253 255.338 431.453 254.201C430.654 253.073 429.986 251.908 429.431 250.714C428.895 249.53 428.566 248.318 428.453 247.115C428.341 245.903 428.51 244.7 428.952 243.507C429.394 242.323 430.193 241.138 431.369 239.992ZM448.354 249.098C447.018 247.735 445.683 246.439 444.366 245.217C443.04 243.986 441.752 243.009 440.501 242.285C439.231 241.543 438.037 241.148 436.918 241.073C435.789 241.007 434.726 241.458 433.739 242.426C432.78 243.366 432.309 244.409 432.347 245.546C432.385 246.683 432.751 247.895 433.457 249.164C434.162 250.442 435.121 251.748 436.316 253.092C437.51 254.436 438.789 255.798 440.125 257.17C441.517 258.58 442.89 259.924 444.244 261.193C445.598 262.452 446.915 263.457 448.185 264.2C449.454 264.942 450.667 265.346 451.805 265.403C452.943 265.459 453.997 265.017 454.956 264.078C455.934 263.11 456.414 262.066 456.367 260.939C456.32 259.811 455.934 258.599 455.219 257.321C454.505 256.033 453.526 254.699 452.294 253.318C451.062 251.927 449.746 250.517 448.354 249.098Z" fill="#008C99"/>
<path d="M445.222 277.422L441.14 280.664L418.456 252.152L422.537 248.91L445.222 277.422Z" fill="#008C99"/>
<path d="M407.208 259.069C409.456 257.622 411.534 257.011 413.434 257.208C415.343 257.406 417.13 258.11 418.766 259.294C420.412 260.479 421.945 262.02 423.365 263.918C424.785 265.816 426.121 267.752 427.381 269.707C428.162 270.928 428.952 272.197 429.742 273.531C430.532 274.866 431.237 276.229 431.848 277.61C432.45 279.001 432.92 280.392 433.24 281.792C433.569 283.192 433.654 284.536 433.504 285.842C433.353 287.148 432.92 288.379 432.196 289.554C431.472 290.719 430.362 291.781 428.867 292.749C426.629 294.187 424.541 294.807 422.632 294.6C420.722 294.403 418.936 293.689 417.271 292.477C415.606 291.255 414.054 289.686 412.616 287.75C411.177 285.814 409.804 283.84 408.506 281.82C407.763 280.674 407.001 279.442 406.23 278.136C405.449 276.83 404.772 275.486 404.17 274.114C403.578 272.742 403.117 271.361 402.806 269.979C402.496 268.598 402.411 267.263 402.552 265.948C402.703 264.651 403.145 263.41 403.869 262.236C404.612 261.089 405.712 260.027 407.208 259.069ZM423.186 272.423C422.067 270.675 420.939 269.011 419.82 267.433C418.691 265.854 417.544 264.529 416.368 263.486C415.192 262.433 414.017 261.757 412.841 261.428C411.666 261.118 410.452 261.352 409.192 262.161C407.97 262.95 407.245 263.946 407.039 265.158C406.822 266.371 406.954 267.733 407.415 269.237C407.885 270.74 408.609 272.329 409.578 274.011C410.556 275.693 411.6 277.403 412.719 279.151C413.876 280.946 415.042 282.666 416.199 284.301C417.356 285.927 418.531 287.28 419.707 288.342C420.882 289.404 422.077 290.09 423.271 290.4C424.466 290.71 425.679 290.475 426.901 289.686C428.162 288.877 428.886 287.872 429.074 286.669C429.271 285.466 429.13 284.104 428.651 282.591C428.171 281.078 427.428 279.442 426.422 277.723C425.425 275.984 424.343 274.218 423.186 272.423Z" fill="#00AAA6"/>
<path d="M412.86 300.493L407.998 302.879L391.304 268.927L396.166 266.54L412.86 300.493Z" fill="#00AAA6"/>
<path d="M378.025 273.936C380.687 272.883 383 272.667 384.975 273.268C386.95 273.879 388.671 274.979 390.157 276.576C391.643 278.164 392.941 280.11 394.041 282.412C395.142 284.705 396.148 287.017 397.079 289.347C397.643 290.795 398.208 292.289 398.772 293.877C399.327 295.446 399.778 297.034 400.136 298.623C400.493 300.211 400.691 301.78 400.747 303.312C400.803 304.844 400.615 306.291 400.183 307.625C399.75 308.979 399.045 310.191 398.038 311.271C397.032 312.343 395.64 313.236 393.872 313.94C391.211 314.993 388.897 315.209 386.922 314.598C384.956 313.997 383.217 312.869 381.712 311.243C380.216 309.618 378.909 307.635 377.79 305.295C376.671 302.955 375.636 300.596 374.686 298.19C374.15 296.828 373.605 295.371 373.059 293.839C372.514 292.298 372.072 290.738 371.724 289.178C371.376 287.599 371.188 286.058 371.141 284.536C371.094 283.014 371.282 281.585 371.715 280.232C372.147 278.897 372.862 277.685 373.868 276.595C374.865 275.524 376.257 274.64 378.025 273.936ZM392.085 291.311C391.267 289.244 390.43 287.261 389.574 285.363C388.709 283.455 387.778 281.829 386.762 280.486C385.746 279.142 384.646 278.164 383.47 277.591C382.295 277.009 380.969 277.009 379.473 277.601C378.025 278.174 377.056 279.076 376.586 280.316C376.116 281.547 375.956 283.004 376.144 284.686C376.323 286.359 376.746 288.191 377.433 290.165C378.11 292.138 378.853 294.149 379.671 296.226C380.517 298.369 381.383 300.417 382.257 302.382C383.141 304.336 384.091 306 385.116 307.372C386.141 308.734 387.242 309.712 388.446 310.285C389.64 310.858 390.957 310.858 392.414 310.285C393.9 309.693 394.869 308.781 395.33 307.569C395.791 306.347 395.922 304.872 395.734 303.18C395.546 301.479 395.104 299.619 394.408 297.589C393.712 295.54 392.941 293.454 392.085 291.311Z" fill="#00B194"/>
<path d="M352.613 281.933C355.491 281.228 357.898 281.331 359.826 282.233C361.764 283.135 363.381 284.517 364.67 286.349C365.968 288.191 367.012 290.371 367.82 292.881C368.62 295.39 369.335 297.889 369.946 300.417C370.322 301.977 370.689 303.594 371.037 305.285C371.385 306.977 371.629 308.659 371.761 310.341C371.902 312.014 371.883 313.658 371.723 315.237C371.554 316.825 371.159 318.272 370.538 319.588C369.899 320.904 368.996 322.041 367.811 323.018C366.635 323.977 365.074 324.7 363.165 325.17C360.287 325.865 357.88 325.762 355.952 324.869C354.014 323.958 352.397 322.576 351.089 320.697C349.782 318.808 348.729 316.6 347.911 314.044C347.092 311.497 346.378 308.922 345.738 306.338C345.371 304.853 345.033 303.293 344.694 301.648C344.346 299.994 344.12 298.34 343.989 296.677C343.857 295.014 343.876 293.407 344.045 291.837C344.214 290.268 344.609 288.84 345.24 287.524C345.87 286.208 346.782 285.071 347.958 284.094C349.143 283.117 350.694 282.402 352.613 281.933ZM364.557 301.733C364.012 299.496 363.428 297.344 362.826 295.277C362.215 293.2 361.491 291.396 360.635 289.873C359.789 288.351 358.801 287.195 357.673 286.434C356.554 285.673 355.19 285.485 353.572 285.88C352.002 286.265 350.892 287.054 350.224 288.257C349.566 289.451 349.199 290.926 349.152 292.674C349.105 294.412 349.284 296.358 349.697 298.472C350.111 300.586 350.591 302.767 351.136 305.003C351.701 307.315 352.293 309.533 352.923 311.675C353.544 313.799 354.287 315.641 355.143 317.182C355.999 318.733 356.996 319.889 358.143 320.64C359.281 321.392 360.645 321.59 362.206 321.204C363.814 320.81 364.943 320.03 365.582 318.827C366.231 317.633 366.57 316.158 366.617 314.382C366.664 312.624 366.476 310.642 366.043 308.471C365.61 306.291 365.121 304.045 364.557 301.733Z" fill="#00B194"/>
<path d="M342.531 327.735L336.578 328.656L330.155 287.111L336.108 286.199L342.531 327.735Z" fill="#00A94F"/>
<path d="M315.031 287.938C317.985 287.684 320.345 288.154 322.113 289.338C323.891 290.522 325.273 292.129 326.27 294.149C327.267 296.16 327.972 298.472 328.377 301.085C328.791 303.697 329.101 306.281 329.317 308.856C329.458 310.454 329.571 312.117 329.646 313.837C329.741 315.557 329.722 317.267 329.59 318.94C329.477 320.622 329.204 322.229 328.8 323.77C328.396 325.311 327.775 326.683 326.957 327.886C326.129 329.089 325.066 330.076 323.74 330.856C322.424 331.626 320.778 332.096 318.822 332.265C315.878 332.51 313.508 332.049 311.74 330.865C309.962 329.681 308.58 328.046 307.573 325.997C306.577 323.93 305.871 321.58 305.457 318.94C305.044 316.29 304.724 313.64 304.498 310.98C304.366 309.467 304.263 307.87 304.169 306.187C304.094 304.496 304.122 302.833 304.244 301.169C304.366 299.515 304.639 297.918 305.044 296.405C305.448 294.882 306.059 293.52 306.887 292.317C307.715 291.105 308.777 290.118 310.103 289.347C311.429 288.577 313.066 288.107 315.031 287.938ZM323.806 309.326C323.609 307.033 323.373 304.815 323.082 302.673C322.79 300.53 322.348 298.641 321.746 297.006C321.135 295.371 320.336 294.084 319.348 293.163C318.361 292.232 317.035 291.838 315.389 291.979C313.781 292.11 312.549 292.721 311.712 293.811C310.865 294.892 310.291 296.301 309.972 298.012C309.661 299.731 309.539 301.667 309.624 303.819C309.708 305.981 309.849 308.198 310.047 310.501C310.254 312.878 310.498 315.162 310.79 317.361C311.081 319.569 311.533 321.496 312.144 323.159C312.746 324.822 313.564 326.11 314.571 327.031C315.586 327.952 316.894 328.346 318.502 328.215C320.148 328.074 321.389 327.463 322.207 326.382C323.035 325.311 323.599 323.892 323.919 322.154C324.229 320.415 324.352 318.432 324.258 316.214C324.154 313.997 324.004 311.704 323.806 309.326Z" fill="#00A94F"/>
<path d="M286.761 289.037C289.817 289.046 292.206 289.742 293.927 291.123C295.648 292.514 296.928 294.29 297.765 296.452C298.611 298.622 299.119 301.066 299.298 303.782C299.476 306.488 299.57 309.185 299.561 311.863C299.561 313.527 299.523 315.246 299.448 317.022C299.382 318.799 299.213 320.556 298.931 322.276C298.649 323.995 298.225 325.621 297.68 327.172C297.116 328.713 296.354 330.066 295.404 331.241C294.445 332.406 293.25 333.318 291.821 333.994C290.401 334.671 288.661 335.009 286.629 335C283.573 335 281.175 334.295 279.463 332.913C277.751 331.523 276.472 329.728 275.626 327.519C274.779 325.311 274.271 322.821 274.083 320.067C273.905 317.304 273.811 314.542 273.82 311.788C273.829 310.219 273.867 308.565 273.933 306.826C274.008 305.088 274.177 303.368 274.459 301.667C274.742 299.976 275.155 298.359 275.72 296.837C276.275 295.315 277.036 293.961 277.996 292.805C278.955 291.631 280.149 290.719 281.579 290.043C282.98 289.366 284.72 289.028 286.761 289.037ZM293.824 311.845C293.833 309.467 293.796 307.165 293.692 304.937C293.598 302.71 293.307 300.727 292.836 298.98C292.366 297.241 291.661 295.841 290.72 294.807C289.789 293.755 288.463 293.238 286.752 293.228C285.077 293.228 283.77 293.736 282.802 294.779C281.842 295.822 281.118 297.213 280.629 298.951C280.14 300.69 279.839 302.673 279.726 304.9C279.623 307.127 279.557 309.439 279.557 311.807C279.547 314.269 279.595 316.647 279.689 318.94C279.783 321.233 280.074 323.262 280.544 325.02C281.024 326.786 281.739 328.187 282.689 329.23C283.648 330.273 284.965 330.799 286.629 330.799C288.341 330.799 289.667 330.282 290.607 329.249C291.548 328.205 292.263 326.815 292.742 325.048C293.231 323.291 293.532 321.261 293.636 318.968C293.758 316.694 293.815 314.307 293.824 311.845Z" fill="#73C167"/>
<path d="M259.28 287.947C262.337 288.173 264.669 289.037 266.287 290.541C267.904 292.044 269.052 293.905 269.738 296.123C270.434 298.35 270.763 300.822 270.754 303.537C270.744 306.263 270.641 308.96 270.453 311.629C270.331 313.282 270.171 314.993 269.983 316.769C269.785 318.536 269.494 320.274 269.089 321.966C268.694 323.657 268.158 325.255 267.49 326.768C266.823 328.262 265.976 329.568 264.942 330.668C263.907 331.758 262.647 332.594 261.18 333.177C259.713 333.741 257.954 333.957 255.923 333.806C252.875 333.581 250.543 332.716 248.925 331.213C247.308 329.709 246.16 327.83 245.464 325.565C244.778 323.3 244.449 320.791 244.458 318.019C244.468 315.247 244.571 312.493 244.778 309.74C244.9 308.17 245.051 306.526 245.239 304.797C245.427 303.067 245.728 301.357 246.123 299.694C246.527 298.012 247.054 296.433 247.722 294.958C248.38 293.473 249.226 292.176 250.27 291.086C251.314 289.996 252.565 289.159 254.042 288.586C255.499 288.022 257.249 287.806 259.28 287.947ZM264.725 311.215C264.904 308.837 265.017 306.545 265.083 304.317C265.139 302.081 264.998 300.079 264.65 298.312C264.293 296.536 263.691 295.098 262.826 293.999C261.96 292.89 260.681 292.27 258.979 292.157C257.315 292.035 255.97 292.448 254.935 293.426C253.901 294.394 253.082 295.719 252.471 297.42C251.869 299.13 251.427 301.075 251.164 303.302C250.9 305.52 250.675 307.804 250.496 310.181C250.317 312.634 250.195 315.012 250.139 317.305C250.073 319.588 250.214 321.637 250.562 323.432C250.91 325.227 251.531 326.674 252.405 327.792C253.289 328.901 254.559 329.512 256.224 329.634C257.935 329.756 259.289 329.324 260.305 328.365C261.321 327.397 262.13 326.054 262.741 324.334C263.343 322.605 263.785 320.612 264.058 318.329C264.321 316.036 264.547 313.668 264.725 311.215Z" fill="#73C167"/>
<path d="M231.48 285.034C234.612 285.457 236.963 286.49 238.533 288.135C240.104 289.78 241.176 291.772 241.75 294.102C242.323 296.433 242.521 298.998 242.342 301.808C242.164 304.618 241.9 307.381 241.524 310.116C241.298 311.807 241.035 313.564 240.725 315.378C240.414 317.201 240 318.968 239.483 320.678C238.957 322.407 238.317 324.014 237.536 325.527C236.756 327.05 235.797 328.328 234.668 329.399C233.53 330.461 232.185 331.241 230.633 331.739C229.091 332.246 227.266 332.35 225.179 332.077C222.047 331.654 219.696 330.621 218.125 328.976C216.554 327.332 215.482 325.32 214.918 322.943C214.344 320.565 214.156 317.953 214.344 315.106C214.523 312.258 214.805 309.429 215.181 306.601C215.398 304.994 215.661 303.302 215.962 301.526C216.263 299.75 216.677 298.021 217.194 296.32C217.711 294.619 218.351 293.031 219.122 291.537C219.893 290.052 220.852 288.774 221.99 287.712C223.119 286.641 224.464 285.87 226.016 285.372C227.577 284.865 229.392 284.752 231.48 285.034ZM235.665 309.326C235.994 306.902 236.257 304.533 236.455 302.24C236.652 299.948 236.615 297.871 236.37 296.029C236.116 294.187 235.58 292.655 234.762 291.471C233.944 290.278 232.655 289.563 230.906 289.328C229.204 289.103 227.784 289.451 226.655 290.39C225.527 291.321 224.605 292.646 223.881 294.365C223.147 296.076 222.573 298.068 222.169 300.333C221.765 302.607 221.388 304.947 221.069 307.39C220.73 309.899 220.457 312.352 220.25 314.711C220.044 317.07 220.072 319.175 220.316 321.054C220.57 322.924 221.116 324.456 221.953 325.649C222.79 326.843 224.059 327.548 225.771 327.783C227.52 328.018 228.95 327.66 230.05 326.73C231.151 325.79 232.072 324.456 232.796 322.717C233.53 320.979 234.104 318.949 234.527 316.609C234.95 314.279 235.326 311.845 235.665 309.326Z" fill="#78A22F"/>
<path d="M207.112 327.651L200.782 326.58L208.353 282.384L214.682 283.464L207.112 327.651Z" fill="#78A22F"/>
<path d="M191.698 278.202C194.886 278.86 197.228 280.1 198.732 281.905C200.228 283.709 201.187 285.833 201.61 288.276C202.034 290.719 202.043 293.37 201.667 296.245C201.281 299.121 200.802 301.949 200.228 304.74C199.87 306.469 199.466 308.246 199.015 310.087C198.573 311.929 198.018 313.734 197.359 315.463C196.701 317.192 195.92 318.808 195.008 320.302C194.105 321.806 193.024 323.056 191.773 324.061C190.522 325.076 189.093 325.791 187.456 326.185C185.829 326.589 183.948 326.57 181.813 326.129C178.625 325.471 176.283 324.24 174.788 322.436C173.293 320.631 172.333 318.479 171.929 315.998C171.515 313.508 171.506 310.802 171.901 307.888C172.286 304.966 172.785 302.072 173.377 299.187C173.716 297.551 174.101 295.832 174.543 294.027C174.985 292.232 175.531 290.475 176.189 288.765C176.848 287.054 177.619 285.457 178.531 283.982C179.434 282.506 180.506 281.266 181.757 280.251C182.998 279.236 184.437 278.531 186.074 278.136C187.682 277.751 189.563 277.77 191.698 278.202ZM194.237 303.5C194.745 301.019 195.187 298.613 195.563 296.264C195.939 293.924 196.052 291.791 195.93 289.874C195.798 287.957 195.356 286.359 194.604 285.062C193.851 283.775 192.582 282.948 190.795 282.581C189.055 282.224 187.569 282.487 186.346 283.371C185.114 284.245 184.061 285.541 183.196 287.252C182.321 288.962 181.588 290.973 181.005 293.266C180.412 295.568 179.867 297.955 179.359 300.436C178.832 302.992 178.371 305.492 177.986 307.907C177.6 310.313 177.468 312.493 177.591 314.429C177.713 316.374 178.155 317.981 178.935 319.278C179.716 320.575 180.976 321.402 182.716 321.75C184.503 322.116 185.989 321.862 187.202 320.979C188.406 320.096 189.441 318.789 190.325 317.06C191.199 315.322 191.942 313.273 192.544 310.905C193.137 308.537 193.701 306.075 194.237 303.5Z" fill="#A0CF67"/>
<path d="M162.656 271.558C165.816 272.347 168.101 273.682 169.521 275.552C170.941 277.422 171.807 279.583 172.126 282.036C172.437 284.498 172.343 287.148 171.835 290.005C171.327 292.862 170.725 295.672 170.029 298.425C169.596 300.136 169.117 301.902 168.59 303.716C168.063 305.548 167.433 307.315 166.7 309.007C165.966 310.708 165.12 312.286 164.151 313.752C163.173 315.2 162.044 316.412 160.756 317.37C159.468 318.329 158 318.968 156.355 319.297C154.709 319.635 152.837 319.532 150.73 319.006C147.57 318.207 145.285 316.872 143.865 315.002C142.445 313.132 141.589 310.952 141.288 308.452C140.987 305.953 141.091 303.255 141.617 300.352C142.135 297.457 142.755 294.582 143.479 291.734C143.884 290.118 144.345 288.408 144.862 286.631C145.379 284.846 146.009 283.126 146.733 281.435C147.458 279.753 148.304 278.202 149.273 276.764C150.241 275.326 151.37 274.133 152.658 273.174C153.947 272.216 155.414 271.567 157.06 271.239C158.668 270.928 160.549 271.032 162.656 271.558ZM164.095 296.94C164.715 294.488 165.261 292.101 165.731 289.78C166.201 287.44 166.418 285.316 166.38 283.399C166.333 281.482 165.966 279.856 165.261 278.54C164.565 277.215 163.323 276.332 161.565 275.89C159.844 275.458 158.348 275.655 157.088 276.473C155.828 277.3 154.718 278.54 153.768 280.222C152.818 281.886 152 283.869 151.314 286.143C150.627 288.417 149.978 290.785 149.357 293.238C148.718 295.785 148.154 298.247 147.665 300.634C147.175 303.03 146.959 305.201 146.987 307.137C147.025 309.082 147.401 310.717 148.125 312.033C148.84 313.358 150.072 314.232 151.793 314.664C153.552 315.106 155.066 314.908 156.298 314.081C157.54 313.245 158.63 311.986 159.59 310.294C160.549 308.603 161.377 306.573 162.073 304.242C162.787 301.921 163.455 299.487 164.095 296.94Z" fill="#A0CF67"/>
<path d="M132.222 313.78L125.648 311.929L138.551 266.07L145.125 267.912L132.222 313.78Z" fill="#C1D82F"/>
<path d="M121.689 260.027C124.896 261.014 127.172 262.518 128.535 264.51C129.89 266.521 130.661 268.786 130.849 271.332C131.037 273.879 130.792 276.604 130.115 279.517C129.438 282.421 128.657 285.278 127.792 288.078C127.256 289.808 126.664 291.603 126.024 293.454C125.375 295.296 124.632 297.081 123.786 298.792C122.939 300.511 121.971 302.09 120.889 303.537C119.808 304.984 118.576 306.159 117.202 307.08C115.82 307.992 114.278 308.574 112.566 308.819C110.854 309.072 108.926 308.866 106.791 308.208C103.584 307.221 101.299 305.717 99.9447 303.725C98.5904 301.724 97.8287 299.421 97.65 296.827C97.4713 294.243 97.7346 291.48 98.4305 288.52C99.1265 285.569 99.9165 282.647 100.819 279.762C101.327 278.117 101.901 276.388 102.531 274.584C103.161 272.78 103.895 271.041 104.732 269.35C105.578 267.658 106.528 266.098 107.6 264.679C108.672 263.26 109.904 262.085 111.287 261.174C112.669 260.262 114.212 259.68 115.933 259.435C117.626 259.163 119.544 259.369 121.689 260.027ZM121.783 286.227C122.554 283.728 123.24 281.312 123.861 278.935C124.472 276.567 124.811 274.396 124.877 272.413C124.933 270.44 124.642 268.748 123.993 267.357C123.344 265.957 122.121 264.989 120.325 264.435C118.576 263.89 117.033 264.012 115.688 264.801C114.343 265.581 113.14 266.803 112.077 268.466C111.005 270.139 110.055 272.122 109.227 274.424C108.4 276.726 107.591 279.123 106.829 281.613C106.03 284.197 105.315 286.706 104.675 289.14C104.045 291.574 103.697 293.792 103.622 295.794C103.556 297.795 103.848 299.506 104.525 300.897C105.193 302.297 106.396 303.274 108.155 303.81C109.951 304.364 111.503 304.251 112.829 303.462C114.146 302.673 115.35 301.442 116.422 299.75C117.503 298.059 118.463 296.029 119.309 293.661C120.156 291.283 120.983 288.802 121.783 286.227Z" fill="#C1D82F"/>
<path d="M93.0694 250.658C96.2388 251.758 98.4771 253.327 99.7562 255.376C101.045 257.424 101.741 259.717 101.844 262.273C101.947 264.82 101.609 267.536 100.828 270.421C100.057 273.296 99.1825 276.134 98.2232 278.897C97.6213 280.617 96.9724 282.384 96.267 284.207C95.5617 286.03 94.7623 287.787 93.85 289.469C92.9471 291.152 91.9314 292.693 90.8029 294.112C89.6743 295.521 88.4046 296.658 86.9939 297.523C85.5832 298.388 84.0314 298.914 82.3009 299.111C80.5799 299.308 78.6613 299.036 76.5452 298.312C73.3758 297.213 71.1469 295.643 69.8678 293.595C68.5794 291.546 67.8928 289.225 67.8082 286.641C67.7141 284.047 68.0715 281.284 68.8615 278.362C69.6609 275.43 70.545 272.535 71.5419 269.678C72.1062 268.053 72.7269 266.342 73.4228 264.557C74.1094 262.781 74.9088 261.061 75.8022 259.398C76.6957 257.734 77.7114 256.212 78.8212 254.821C79.9497 253.44 81.21 252.312 82.6207 251.438C84.0314 250.574 85.5926 250.047 87.3231 249.85C89.0347 249.662 90.9533 249.925 93.0694 250.658ZM92.2794 276.849C93.1352 274.387 93.9064 271.981 94.6024 269.622C95.2889 267.282 95.7027 265.111 95.8344 263.138C95.9661 261.164 95.7309 259.473 95.1196 258.044C94.5177 256.635 93.3327 255.62 91.5552 255.009C89.8247 254.408 88.2824 254.483 86.9093 255.206C85.5362 255.939 84.2947 257.124 83.1662 258.749C82.047 260.384 81.0313 262.339 80.119 264.613C79.2162 266.887 78.3321 269.256 77.4763 271.718C76.5922 274.264 75.7928 276.755 75.0781 279.16C74.3633 281.576 73.9401 283.784 73.799 285.776C73.6674 287.778 73.9119 289.479 74.5326 290.907C75.1533 292.326 76.3289 293.341 78.0594 293.943C79.8369 294.553 81.3887 294.488 82.743 293.745C84.0878 293.012 85.3293 291.8 86.4578 290.155C87.5864 288.501 88.6209 286.509 89.552 284.169C90.4925 281.848 91.3953 279.395 92.2794 276.849Z" fill="#D5D10E"/>
<path d="M64.225 240.124C67.4508 241.355 69.6892 243.056 70.9494 245.189C72.2096 247.341 72.8492 249.728 72.868 252.359C72.8962 254.981 72.4542 257.763 71.5513 260.713C70.6578 263.645 69.6703 266.54 68.5888 269.359C67.9211 271.107 67.1969 272.902 66.4069 274.762C65.6169 276.614 64.7328 278.399 63.7453 280.1C62.7672 281.801 61.6669 283.361 60.4537 284.771C59.2499 286.171 57.905 287.308 56.419 288.144C54.9331 289 53.3154 289.479 51.5379 289.629C49.7604 289.77 47.7948 289.432 45.6505 288.614C42.4247 287.374 40.1864 285.682 38.9261 283.54C37.6659 281.388 37.0358 278.973 37.0264 276.313C37.0264 273.644 37.4778 270.806 38.3901 267.827C39.3023 264.839 40.318 261.888 41.4372 258.984C42.0673 257.33 42.7727 255.592 43.5439 253.788C44.3151 251.974 45.1897 250.235 46.1678 248.553C47.1459 246.871 48.2275 245.339 49.4313 243.948C50.6257 242.558 51.9706 241.449 53.4471 240.603C54.9331 239.748 56.5507 239.259 58.3282 239.118C60.1057 238.958 62.0713 239.306 64.225 240.124ZM62.5415 267.038C63.5008 264.529 64.3755 262.076 65.1655 259.689C65.9555 257.302 66.4445 255.084 66.642 253.055C66.8395 251.034 66.6514 249.277 66.0777 247.801C65.504 246.326 64.319 245.245 62.5133 244.55C60.7546 243.883 59.1558 243.901 57.7263 244.606C56.2967 245.32 54.9707 246.495 53.7669 248.13C52.5537 249.765 51.4439 251.739 50.4376 254.051C49.4313 256.362 48.4438 258.768 47.4751 261.268C46.4782 263.871 45.5753 266.399 44.7665 268.852C43.9483 271.314 43.4404 273.569 43.2335 275.618C43.0266 277.676 43.2241 279.433 43.8166 280.918C44.4091 282.403 45.5847 283.483 47.3434 284.16C49.1491 284.836 50.7573 284.836 52.1681 284.113C53.5788 283.399 54.8954 282.205 56.1086 280.542C57.3313 278.879 58.4599 276.858 59.485 274.49C60.5289 272.122 61.5446 269.632 62.5415 267.038Z" fill="#F2EB46"/>
<path d="M35.4654 228.584C38.6536 229.918 40.8355 231.685 42.0205 233.874C43.2055 236.064 43.7604 238.47 43.704 241.101C43.6475 243.723 43.1114 246.495 42.1239 249.408C41.127 252.312 40.0455 255.169 38.8699 257.941C38.1457 259.67 37.3557 261.437 36.5093 263.27C35.6629 265.102 34.7224 266.85 33.6785 268.513C32.6345 270.186 31.4871 271.708 30.2363 273.08C28.9855 274.443 27.603 275.524 26.0982 276.332C24.5934 277.131 22.9476 277.572 21.1701 277.648C19.3926 277.732 17.4364 277.328 15.3203 276.435C12.1321 275.101 9.9502 273.334 8.7652 271.145C7.5802 268.964 7.03472 266.53 7.11936 263.862C7.20401 261.183 7.74949 258.383 8.7558 255.432C9.77152 252.472 10.8719 249.559 12.0851 246.692C12.7716 245.057 13.5334 243.347 14.361 241.562C15.1887 239.776 16.1197 238.066 17.1543 236.421C18.1888 234.767 19.3174 233.273 20.5682 231.929C21.8096 230.585 23.1921 229.505 24.6969 228.715C26.2017 227.916 27.8475 227.484 29.625 227.39C31.3931 227.296 33.3493 227.691 35.4654 228.584ZM32.8979 255.432C33.9418 252.961 34.9011 250.545 35.7663 248.177C36.6316 245.809 37.1958 243.62 37.4686 241.599C37.7319 239.579 37.6002 237.821 37.083 236.327C36.5563 234.833 35.4089 233.715 33.622 232.963C31.8822 232.23 30.2927 232.192 28.835 232.86C27.3773 233.517 26.023 234.645 24.7627 236.252C23.5025 237.85 22.3269 239.795 21.2453 242.06C20.1544 244.334 19.0917 246.702 18.0477 249.183C16.9756 251.748 15.9787 254.239 15.0852 256.673C14.1918 259.106 13.6087 261.343 13.3359 263.392C13.0632 265.431 13.1949 267.207 13.7403 268.701C14.2858 270.205 15.4238 271.323 17.1637 272.056C18.9412 272.799 20.5494 272.845 21.9789 272.169C23.4178 271.502 24.7721 270.355 26.0418 268.739C27.3114 267.113 28.5058 265.13 29.6156 262.79C30.7254 260.45 31.8257 257.998 32.8979 255.432Z" fill="#F2EB46"/>
</svg>
