<svg width="220" height="284" viewBox="0 0 220 284" fill="none" xmlns="http://www.w3.org/2000/svg">
<path d="M29.5046 63.8865C28.6791 64.4885 15.0908 91.4411 11.863 94.138C8.62689 96.8267 2.28678 93.7256 0.957668 88.6865C-0.371441 83.6473 19.2102 48.9257 19.2102 48.9257L29.5046 63.8865Z" fill="#FF8B6A"/>
<path d="M40.4595 39.2431C33.104 39.573 24.1387 42.806 21.2328 45.7668C18.3269 48.7276 9.52671 65.4699 9.3616 67.342C9.19649 69.2142 23.9901 76.8183 24.3451 76.2987C24.7 75.7791 32.1959 60.5214 32.1959 60.5214" fill="white"/>
<path d="M15.1404 257.041C15.1322 257.025 15.1239 257.008 15.1156 256.992C14.8845 256.307 15.0579 255.573 15.2147 254.872C16.2301 250.303 16.5768 245.585 16.2549 240.909C16.098 238.658 15.776 236.398 15.9164 234.146C16.0072 232.703 16.42 228.95 18.0133 228.233C18.8801 227.837 20.9191 228.662 21.8025 228.893C23.2802 229.272 24.7496 229.684 26.1943 230.146C26.7557 230.328 28.1673 230.542 28.5471 231.045C28.9021 231.515 20.9852 258.6 20.9852 258.6C20.8448 259.086 15.6605 258.163 15.1404 257.041Z" fill="#FF8B6A"/>
<path d="M21.8354 261.899C21.8354 261.899 22.5536 264.934 22.2894 265.495C22.0335 266.064 21.208 266.905 20.3742 267.053C20.3742 267.053 20.044 263.565 20.2917 263.144C20.5476 262.724 21.8271 262.163 21.8354 261.899Z" fill="#161960"/>
<path d="M20.3577 268.068C20.6962 268.216 20.8283 268.645 20.7127 269.099C20.5971 269.544 20.9604 270.171 20.8778 270.592C20.5971 272.068 19.0781 272.497 17.7243 272.348C16.8244 272.249 15.9659 271.936 15.1156 271.639C14.2735 271.342 13.4232 271.21 12.5729 270.979C11.7639 270.757 10.9631 270.526 10.1211 270.377C9.35334 270.237 8.56909 270.122 7.89216 269.742C6.89326 269.173 6.497 268.027 6.885 266.996C7.36381 265.709 8.74244 264.489 9.23776 264.489C9.73308 264.489 20.3577 268.068 20.3577 268.068Z" fill="#161960"/>
<path d="M11.2356 262.625C11.0045 262.855 10.3853 263.548 10.9962 263.68C11.2191 263.73 11.5493 263.631 11.7722 263.606C12.0942 263.573 12.4244 263.548 12.7463 263.532C14.0259 263.458 15.3137 263.482 16.5933 263.614C17.0804 263.664 17.6417 263.705 17.9967 263.383C18.2856 263.128 18.3517 262.707 18.5168 262.361C18.847 261.668 19.5817 261.239 20.011 260.604C20.4568 259.944 20.5476 259.111 20.5476 258.319C20.5476 257.379 20.4485 256.439 20.2504 255.515C19.6643 254.971 18.8965 254.509 17.9059 254.171C16.8079 253.8 15.0166 254.517 13.9021 255.218C14.125 257.915 13.1426 260.678 11.2356 262.625Z" fill="white"/>
<path d="M21.9015 261.708C22.207 260.612 22.4629 257.544 20.2587 255.515C20.4569 256.438 20.5559 257.379 20.5559 258.319C20.5559 259.111 20.4651 259.944 20.0193 260.603C19.59 261.247 18.8553 261.667 18.5251 262.36C18.36 262.706 18.294 263.127 18.005 263.383C17.6418 263.704 17.0887 263.663 16.6016 263.614C15.322 263.49 14.0342 263.457 12.7546 263.531C12.4327 263.548 12.1024 263.572 11.7805 263.605C11.5576 263.63 11.2274 263.729 11.0045 263.68C10.3936 263.548 11.0127 262.855 11.2439 262.624C13.1426 260.678 14.1333 257.915 13.9186 255.218C13.3325 255.589 12.9362 255.952 12.9197 256.15C12.8702 256.727 13.0436 258.69 12.7381 259.045C12.4327 259.399 8.74252 264.612 8.71776 266.014C8.69299 267.416 9.98082 268.183 11.7557 268.339C13.5389 268.496 16.1393 269.981 17.2455 270.195C18.3517 270.401 20.2752 270.063 20.3661 268.323C20.4569 266.583 20.2918 264.273 20.5064 263.432C20.7045 262.599 21.5135 263.102 21.9015 261.708Z" fill="#F2AF2A"/>
<path d="M11.3676 262.525C11.219 262.501 11.0952 262.377 11.0622 262.22C11.0292 262.022 11.1612 261.833 11.3676 261.8C11.5327 261.775 15.4623 261.181 19.0038 262.534C19.2019 262.608 19.2927 262.822 19.2184 263.012C19.1441 263.202 18.9295 263.292 18.7314 263.218C15.3797 261.94 11.5245 262.517 11.4914 262.525C11.4502 262.534 11.4089 262.534 11.3676 262.525Z" fill="#161960"/>
<path d="M12.1766 261.198C12.028 261.173 11.9042 261.049 11.8711 260.893C11.8381 260.695 11.9702 260.505 12.1766 260.472C12.3417 260.447 16.263 259.853 19.8127 261.206C20.0109 261.28 20.1017 261.495 20.0274 261.684C19.9531 261.874 19.7385 261.965 19.5403 261.891C16.1887 260.612 12.3335 261.19 12.3004 261.198C12.2674 261.206 12.2179 261.206 12.1766 261.198Z" fill="#161960"/>
<path d="M12.8123 259.853C12.6637 259.829 12.5399 259.705 12.5069 259.548C12.4739 259.35 12.6059 259.161 12.8123 259.128C12.9774 259.103 16.907 258.509 20.4485 259.862C20.6466 259.936 20.7374 260.15 20.6631 260.34C20.5888 260.53 20.3742 260.62 20.1761 260.546C16.8244 259.268 12.9692 259.845 12.9361 259.853C12.8949 259.87 12.8536 259.862 12.8123 259.853Z" fill="#161960"/>
<path d="M13.3407 258.583C13.1921 258.559 13.0682 258.435 13.0352 258.278C13.0022 258.08 13.1425 257.891 13.3407 257.858C13.5058 257.833 17.4271 257.239 20.9769 258.592C21.175 258.666 21.2658 258.88 21.1915 259.07C21.1172 259.26 20.9026 259.35 20.7045 259.276C17.3528 257.998 13.4975 258.575 13.4645 258.583C13.4315 258.6 13.3819 258.592 13.3407 258.583Z" fill="#161960"/>
<path d="M16.0897 257.874C15.8585 257.833 15.6191 257.717 15.4127 257.618C15.2889 257.561 15.1651 257.503 15.099 257.487C14.7441 257.396 14.3891 257.346 14.0093 257.289C13.7864 257.256 13.547 257.223 13.3159 257.181C12.4243 257.016 12.1519 256.596 12.0776 256.274C12.0033 255.944 12.1271 255.581 12.4078 255.317C12.5977 255.144 12.8536 255.012 13.1921 254.93C14.0919 254.707 15.0825 254.905 15.8338 255.441C15.8833 255.474 17.0473 256.332 16.9813 257.19C16.9482 257.553 16.7749 257.726 16.6345 257.8C16.4529 257.899 16.2713 257.907 16.0897 257.874ZM14.8349 256.678C14.9835 256.703 15.1403 256.736 15.2889 256.777C15.4293 256.81 15.5779 256.884 15.7347 256.959C15.8668 257.016 16.0897 257.124 16.2135 257.148C16.2135 257.14 16.2135 257.132 16.2135 257.124C16.2383 256.86 15.7925 256.332 15.3797 256.035C14.8183 255.631 14.0506 255.482 13.3737 255.647C13.1673 255.697 13.0187 255.763 12.9279 255.854C12.8453 255.936 12.7958 256.043 12.8123 256.117C12.8453 256.258 13.0847 256.381 13.448 256.456C13.6626 256.497 13.8938 256.53 14.1084 256.563C14.3478 256.596 14.5872 256.637 14.8349 256.678Z" fill="#161960"/>
<path d="M16.9399 258.039C16.7583 258.006 16.585 257.932 16.4694 257.783C16.3621 257.66 16.263 257.437 16.3703 257.091C16.618 256.266 18.0131 255.895 18.0709 255.878C18.9707 255.647 19.9614 255.829 20.7126 256.356C20.9933 256.554 21.1832 256.761 21.2988 257C21.4639 257.338 21.4473 257.726 21.2575 258.006C21.0758 258.278 20.6631 258.567 19.7715 258.402C19.5404 258.361 19.3092 258.303 19.0863 258.253C18.7148 258.163 18.3599 258.08 17.9966 258.039C17.9223 258.031 17.7902 258.039 17.6581 258.047C17.427 258.064 17.1711 258.08 16.9399 258.039ZM19.3257 256.554C18.9707 256.488 18.6075 256.497 18.269 256.587C17.7737 256.711 17.1628 257.049 17.0885 257.297C17.0885 257.305 17.0803 257.313 17.0803 257.321C17.2041 257.346 17.4518 257.33 17.6004 257.313C17.7737 257.305 17.9388 257.288 18.0874 257.305C18.4919 257.354 18.8882 257.445 19.2679 257.536C19.4826 257.585 19.7055 257.635 19.9201 257.676C20.2833 257.742 20.5558 257.717 20.6383 257.594C20.6796 257.528 20.6796 257.404 20.6301 257.305C20.5723 257.19 20.4567 257.074 20.2833 256.95C19.9944 256.752 19.6642 256.62 19.3257 256.554Z" fill="#161960"/>
<path d="M24.1634 180.546C24.1717 180.472 24.1716 180.398 24.1799 180.332C24.4028 176.835 23.4865 173.132 23.4617 169.602C23.4369 165.701 23.5938 161.808 23.9405 157.924C24.6174 150.311 26.0126 142.765 28.0929 135.416C29.1414 131.713 30.3879 128.093 31.7583 124.497C32.5095 122.526 32.3444 122.559 34.3753 122.814C35.8447 122.996 37.3142 123.4 38.7506 123.721C44.777 125.066 50.7539 126.798 56.8711 127.713C56.1199 127.598 49.8045 151.342 49.1111 153.404C46.9069 159.977 44.8761 166.6 43.0186 173.28C40.897 180.909 39.4606 188.53 37.1408 196.027C32.9801 209.462 33.2113 223.4 27.3912 236.505C26.6813 238.105 25.8888 239.713 24.6257 240.926C23.3626 242.138 21.5382 242.905 19.8458 242.476C15.1155 241.288 15.809 231.037 15.6851 227.49C15.4622 220.95 15.8668 214.394 16.8739 207.928C17.6334 203.045 18.7479 198.22 20.2008 193.495C21.5052 189.255 23.7919 184.975 24.1634 180.546Z" fill="#FF8B6A"/>
<path d="M70.822 259.144C70.8303 259.128 70.8468 259.111 70.8551 259.095C71.2018 258.468 71.1688 257.709 71.144 256.992C70.9706 252.315 71.4742 247.614 72.6382 243.078C73.1996 240.884 73.9178 238.724 74.1902 236.48C74.3636 235.037 74.6277 231.284 73.1913 230.286C72.4071 229.742 70.2607 230.187 69.3443 230.253C67.8253 230.361 66.3064 230.501 64.7956 230.699C64.2095 230.773 62.7813 230.732 62.319 231.161C61.8898 231.556 64.7956 259.622 64.7956 259.622C64.8369 260.134 70.0956 260.159 70.822 259.144Z" fill="#FF8B6A"/>
<path d="M63.3515 262.724C63.3515 262.724 62.1049 265.577 62.2535 266.179C62.4021 266.781 63.0625 267.763 63.855 268.06C63.855 268.06 64.8127 264.686 64.6393 264.225C64.4742 263.763 63.3185 262.987 63.3515 262.724Z" fill="#161960"/>
<path d="M63.6982 269.049C63.335 269.132 63.1286 269.536 63.1617 269.998C63.1947 270.46 62.7241 271.004 62.7241 271.441C62.7324 272.942 64.144 273.635 65.5062 273.734C66.406 273.8 67.3058 273.643 68.1974 273.503C69.0807 273.363 69.9393 273.387 70.8226 273.313C71.6646 273.247 72.4902 273.165 73.3405 273.165C74.1165 273.165 74.9173 273.198 75.652 272.942C76.7417 272.563 77.3278 271.507 77.1379 270.418C76.8985 269.066 75.7593 267.614 75.2722 267.532C74.7852 267.449 63.6982 269.049 63.6982 269.049Z" fill="#161960"/>
<path d="M73.6542 265.338C73.8359 265.61 74.3229 266.402 73.6955 266.418C73.4726 266.427 73.1672 266.27 72.9525 266.204C72.6388 266.113 72.3251 266.031 72.0032 265.957C70.7566 265.651 69.4853 265.445 68.2057 265.346C67.7186 265.305 67.1573 265.247 66.8601 264.868C66.6207 264.563 66.6289 264.142 66.5299 263.771C66.3317 263.029 65.6878 262.476 65.3741 261.767C65.0521 261.041 65.1182 260.208 65.2585 259.425C65.4236 258.501 65.6961 257.594 66.0593 256.719C66.7363 256.291 67.57 255.969 68.6102 255.821C69.7577 255.656 71.384 256.686 72.3582 257.577C71.6565 260.192 72.127 263.086 73.6542 265.338Z" fill="white"/>
<path d="M63.3262 262.525C63.2271 261.395 63.5243 258.327 66.0587 256.727C65.6954 257.601 65.423 258.508 65.2579 259.432C65.1176 260.216 65.0598 261.049 65.3735 261.774C65.6789 262.484 66.3229 263.036 66.5292 263.779C66.6283 264.15 66.62 264.57 66.8594 264.875C67.1566 265.255 67.7098 265.313 68.2051 265.354C69.4846 265.461 70.7559 265.659 72.0025 265.964C72.3162 266.038 72.6382 266.121 72.9519 266.212C73.1665 266.269 73.472 266.434 73.6949 266.426C74.3223 266.401 73.8352 265.61 73.6536 265.346C72.1346 263.086 71.664 260.191 72.3575 257.585C72.8693 258.055 73.1913 258.484 73.1748 258.682C73.117 259.259 72.5969 261.156 72.8363 261.56C73.0757 261.964 75.7669 267.754 75.5358 269.139C75.3046 270.517 73.9095 271.045 72.1263 270.88C70.3432 270.715 67.5116 271.713 66.3972 271.713C65.2744 271.721 63.4418 271.036 63.6646 269.313C63.8958 267.589 64.4737 265.337 64.4076 264.48C64.3416 263.605 63.45 263.96 63.3262 262.525Z" fill="#F2AF2A"/>
<path d="M73.5386 265.222C73.6954 265.222 73.8358 265.132 73.8936 264.983C73.9596 264.794 73.8605 264.579 73.6624 264.513C73.5056 264.455 69.7494 263.169 66.018 263.862C65.8116 263.903 65.6795 264.092 65.7208 264.29C65.7621 264.488 65.9602 264.62 66.1583 264.579C69.6834 263.928 73.3735 265.189 73.4065 265.198C73.456 265.214 73.4973 265.222 73.5386 265.222Z" fill="#161960"/>
<path d="M72.9854 263.771C73.1423 263.771 73.2826 263.68 73.3404 263.532C73.4147 263.342 73.3074 263.128 73.1092 263.062C72.9524 263.004 69.1962 261.718 65.4648 262.41C65.2584 262.452 65.1263 262.641 65.1676 262.839C65.2089 263.037 65.407 263.169 65.6051 263.128C69.1301 262.476 72.8203 263.738 72.8533 263.746C72.8946 263.763 72.9359 263.771 72.9854 263.771Z" fill="#161960"/>
<path d="M72.5974 262.336C72.7543 262.336 72.8946 262.245 72.9524 262.097C73.0184 261.907 72.9194 261.692 72.7213 261.626C72.5644 261.569 68.8082 260.282 65.0768 260.975C64.8705 261.016 64.7384 261.206 64.7796 261.404C64.8209 261.602 65.019 261.734 65.2172 261.692C68.7422 261.041 72.4323 262.303 72.4653 262.311C72.5148 262.327 72.5561 262.336 72.5974 262.336Z" fill="#161960"/>
<path d="M72.3085 260.992C72.4654 260.992 72.6057 260.901 72.6635 260.752C72.7296 260.563 72.6305 260.348 72.4324 260.282C72.2755 260.225 68.5193 258.938 64.7879 259.631C64.5815 259.672 64.4494 259.862 64.4907 260.06C64.532 260.258 64.7301 260.39 64.9282 260.348C68.4533 259.697 72.1434 260.959 72.1765 260.967C72.2177 260.983 72.2673 260.992 72.3085 260.992Z" fill="#161960"/>
<path d="M69.221 259.639C69.0972 259.54 68.9569 259.334 68.9899 258.971C69.0724 258.113 70.3768 257.486 70.4263 257.462C71.2601 257.066 72.2673 257.049 73.1176 257.429C73.4313 257.569 73.6624 257.742 73.8193 257.948C74.0422 258.253 74.1 258.633 73.9679 258.946C73.8358 259.251 73.4891 259.614 72.5892 259.614C72.3581 259.614 72.1187 259.606 71.8875 259.598C71.4995 259.581 71.1363 259.565 70.773 259.598C70.6987 259.606 70.5667 259.639 70.4428 259.672C70.2199 259.73 69.9723 259.796 69.7329 259.796C69.5512 259.796 69.3696 259.754 69.221 259.639ZM71.9206 258.864C72.1435 258.872 72.3663 258.88 72.5892 258.88C72.9607 258.88 73.2166 258.798 73.2744 258.666C73.3074 258.592 73.2827 258.476 73.2084 258.385C73.1258 258.278 72.9937 258.187 72.8039 258.097C72.1682 257.816 71.384 257.825 70.7565 258.121C70.2942 258.344 69.7576 258.781 69.7329 259.045C69.7329 259.053 69.7329 259.062 69.7329 259.07C69.8567 259.07 70.1044 259.004 70.2365 258.963C70.4098 258.921 70.5667 258.872 70.707 258.864C70.8639 258.855 71.0207 258.847 71.1693 258.847C71.4335 258.847 71.6811 258.855 71.9206 258.864Z" fill="#161960"/>
<path d="M68.1643 259.68C68.0322 259.647 67.9002 259.614 67.8341 259.606C67.4709 259.581 67.1076 259.598 66.7196 259.623C66.4885 259.631 66.2573 259.647 66.0179 259.647C65.1181 259.655 64.7631 259.301 64.631 258.996C64.4907 258.682 64.5485 258.303 64.7714 257.998C64.9282 257.783 65.1511 257.618 65.4648 257.47C66.3069 257.082 67.314 257.082 68.1561 257.47C68.2139 257.495 69.5182 258.113 69.609 258.963C69.6503 259.326 69.51 259.524 69.3861 259.631C69.2375 259.754 69.0642 259.796 68.8743 259.796C68.6349 259.804 68.379 259.738 68.1643 259.68ZM65.7868 258.13C65.5969 258.22 65.4648 258.311 65.3823 258.418C65.3162 258.509 65.2915 258.625 65.3245 258.699C65.3823 258.831 65.6382 258.905 66.0179 258.905C66.2408 258.905 66.4637 258.888 66.6866 258.88C67.0746 258.864 67.4791 258.839 67.8837 258.864C68.024 258.872 68.1891 258.913 68.3542 258.954C68.4946 258.987 68.734 259.053 68.866 259.053C68.866 259.045 68.866 259.037 68.866 259.029C68.8413 258.765 68.2964 258.336 67.8341 258.121C67.5122 257.973 67.1572 257.899 66.7939 257.899C66.439 257.915 66.0922 257.99 65.7868 258.13Z" fill="#161960"/>
<path d="M60.9988 223.507C59.4385 208.909 61.1804 194.22 59.5871 179.622C59.0175 174.435 58.3405 169.264 57.7131 164.084C56.1281 150.921 54.5513 137.759 52.9663 124.596C52.9663 124.587 52.9498 124.406 52.9415 124.406C57.1105 124.546 61.2959 124.043 65.4401 123.639C67.6773 123.416 69.9228 123.185 72.16 123.02C73.4395 122.921 76.4362 122.196 77.6002 122.814C80.1842 124.192 80.1842 134.311 80.4566 137.124C80.9519 142.237 81.1253 147.383 80.9932 152.521C80.762 161.297 78.5083 169.726 77.4351 178.394C76.9976 181.94 76.1473 185.511 76.0235 189.107C75.8666 193.528 76.9481 197.643 77.2288 201.923C77.5507 206.798 77.2205 211.812 76.8243 216.67C76.0235 226.328 74.1825 235.895 71.3344 245.156C71.0207 246.171 70.2778 247.416 69.2624 247.103C68.8248 246.963 68.5359 246.558 68.28 246.171C64.1358 239.763 62.0224 232.208 61.1226 224.629C61.0813 224.266 61.0318 223.886 60.9988 223.507Z" fill="#FF8B6A"/>
<path d="M84.7412 135.466C85.5667 141.833 84.7907 148.282 84.0147 154.649C83.5854 158.146 83.1644 161.635 82.7351 165.132C82.4379 167.589 82.8342 173.338 81.2739 175.301C79.9365 176.983 78.3846 176.224 76.4611 176.29C73.4479 176.389 70.5585 177.429 67.5948 177.981C54.1303 180.488 39.9807 179.367 27.1189 174.641C25.8476 174.171 24.535 173.635 23.6764 172.596C22.5124 171.185 22.4381 169.206 22.4133 167.375C22.3473 162.055 21.7529 156.365 22.6115 151.161C23.5196 145.66 24.4772 140.068 25.5999 134.6C26.3842 130.105 27.4243 125.156 31.0897 122.427C33.6241 120.538 36.9262 120.101 40.0715 119.787C50.7374 118.732 61.4198 118.427 72.127 118.657C76.5601 118.756 78.2277 119.721 80.7043 123.639C82.925 127.202 84.1963 131.326 84.7412 135.466Z" fill="#161960"/>
<path d="M53.4781 41.404C54.1055 40.7112 53.8744 39.5484 53.2222 38.8886C52.57 38.2288 51.6207 37.9566 50.7126 37.7587C47.0637 36.9587 43.2745 36.9339 39.5679 37.4123C38.7671 37.5195 37.9581 37.6515 37.2482 38.0308C36.5382 38.4102 35.9438 39.0865 35.8612 39.8947C35.7787 40.6947 36.3566 41.569 37.1656 41.6267" fill="white"/>
<path d="M79.631 123.655C80.3492 123.804 81.0344 123.771 81.6288 123.342C82.4048 122.773 82.6359 121.668 82.4378 120.728C82.2479 119.779 81.7113 118.946 81.2243 118.121C80.6877 117.214 80.1758 116.299 79.7053 115.359C78.5661 113.099 77.6332 110.748 76.6921 108.398C74.2072 102.163 70.6079 96.406 68.7257 89.8988C67.0994 84.2988 66.6619 78.1875 68.5606 72.6699C69.4356 70.138 70.7813 67.7627 71.3096 65.14C72.3333 60.0596 69.8979 56.0761 68.7009 51.3669C67.7433 47.5813 65.0768 44.7442 61.6426 42.8143C54.5265 38.8143 45.8832 36.7689 38.1314 40.0762C30.2888 43.4246 26.3593 52.9751 27.2344 61.0576C27.7462 65.8411 29.356 70.4266 30.4292 75.1194C31.5354 79.9607 32.0637 84.9339 32.0142 89.8905C31.9729 94.5173 30.8749 98.9462 30.5695 103.499C30.3796 106.319 30.6768 109.693 29.3808 112.241C28.613 113.75 27.6554 115.301 27.804 116.983C27.9939 119.095 29.8926 121.264 28.7781 123.07C28.2663 123.903 26.4253 124.686 26.4749 125.717C26.5326 127.119 28.8772 127.474 29.8596 127.218C31.2547 126.864 32.3527 125.833 33.4919 124.959C37.537 121.841 42.6553 120.365 47.7406 119.919C52.8259 119.474 57.9442 120.002 63.0213 120.521C66.1913 120.851 69.4439 120.992 72.5809 121.503C74.7686 121.866 77.4929 123.746 79.631 123.655Z" fill="white"/>
<path d="M54.0063 60.8597C55.1373 62.2123 79.5401 83.1937 90.7178 92.769C93.7805 95.3999 98.3787 95.136 101.128 92.1752C103.968 89.1154 103.761 84.3236 100.665 81.5195C99.0557 80.1587 97.611 78.8309 95.8031 77.8247C94.086 76.8762 92.4514 75.8205 90.9077 74.5917C87.8119 72.1422 85.1289 69.2144 82.5698 66.2205C78.2935 61.2309 74.3227 55.8783 69.2044 51.6968C68.2881 50.9546 67.1241 49.635 65.8527 49.9237C64.6144 50.2123 63.1368 52.2824 62.2452 53.1237C59.4962 55.7051 56.7471 58.2865 54.0063 60.8597Z" fill="#FF8B6A"/>
<path d="M83.1477 40.4062C82.446 40.4557 84.3943 49.7505 84.5346 50.3608C85.5087 54.6412 86.326 58.9547 87.0029 63.2928C88.0266 69.8825 88.6953 76.5216 89.0172 83.1856C89.1245 85.4371 88.4228 88.9587 89.4795 90.9381C90.8086 93.4453 94.3914 94.5258 97.0001 94.0474C101.111 93.2969 103.819 89.3464 103.035 85.2474C100.93 74.2701 94.3171 64.5464 92.6165 53.5443C92.4349 52.3732 92.3689 39.7959 91.9809 39.8206C91.9809 39.8124 83.222 40.398 83.1477 40.4062Z" fill="#FF8B6A"/>
<path d="M93.5164 47.4577C93.4008 47.903 93.2522 48.3319 93.0459 48.7443C92.8312 49.1731 92.1708 50.3608 91.5681 50.3113C90.5032 50.2206 89.4465 50.1298 88.3816 50.0391C87.0525 49.9237 85.9462 50.2123 84.6749 49.668C82.4542 48.7113 80.5803 46.6082 79.8703 44.2989C79.5814 43.3505 79.342 42.3443 78.7393 41.5608C78.3183 41.0165 77.7074 40.4886 77.7817 39.8123C77.823 39.4082 78.1367 39.0536 78.5164 38.8886C79.1191 38.6247 79.9529 38.6824 80.4565 39.1195C80.9022 39.5154 81.3728 40.5793 82.0497 40.6041C82.9578 40.6453 83.8164 39.6474 84.2209 38.9464C85.6986 36.3484 85.3931 33.1237 86.2187 30.2453C86.3838 29.6763 86.7305 29.0082 87.3249 29.0165C87.7294 29.0247 88.0596 29.3711 88.1834 29.7505C88.3073 30.1299 88.266 30.5505 88.2247 30.9464C88.0679 32.4557 87.911 33.9649 87.7542 35.4742C87.7294 35.7051 87.6716 36.3072 87.9688 36.4227C88.2247 36.5216 88.5137 36.1092 88.6045 35.9113C88.7283 35.6556 88.7696 35.367 88.8109 35.0866C89.042 33.5113 89.3144 31.9443 89.5869 30.3773C89.6777 29.8742 89.7685 29.3464 90.0409 28.9175C90.3133 28.4804 90.8169 28.1505 91.3287 28.233C92.1378 28.3649 92.0965 29.2886 92.0304 29.899C91.9396 30.7979 91.7828 31.6886 91.6177 32.5711C91.2875 34.3443 90.8747 36.1093 90.6105 37.8907C90.561 38.2123 90.5775 38.6412 90.8912 38.7402C91.0811 38.8062 91.2957 38.6907 91.4113 38.534C91.5269 38.369 91.5681 38.1711 91.6094 37.9732C92.0139 35.969 92.4184 33.9732 92.8229 31.969C92.8972 31.5897 93.0376 30.7814 93.5329 30.7319C94.0282 30.6824 94.2676 31.3422 94.3172 31.7216C94.4823 33.0659 94.1603 34.402 93.8962 35.7051C93.632 36.9917 93.4834 38.2866 93.3183 39.5897C93.3018 39.7051 93.2935 39.8371 93.3678 39.9195C93.4669 40.035 93.665 40.0103 93.7723 39.9031C93.8797 39.8041 93.9292 39.6474 93.9787 39.5072C94.3585 38.2701 94.8042 37.0577 95.3243 35.8783C95.4564 35.5732 95.6958 35.2103 96.026 35.2845C96.1994 35.3175 96.3232 35.4742 96.3728 35.6474C96.5214 36.1587 96.4223 37.033 96.3562 37.5608C96.2654 38.3031 96.0095 39.0206 95.7041 39.6969C95.2418 40.736 94.6721 41.734 94.3419 42.8226C93.9787 44.035 93.9292 45.3133 93.7145 46.567C93.6485 46.8639 93.5907 47.1608 93.5164 47.4577Z" fill="#FF8B6A"/>
<path d="M29.6367 10.8969C29.2322 12.3814 29.0919 13.9649 29.2735 15.5814C29.5129 17.7092 30.2724 19.7298 30.8255 21.7834C31.2961 23.5236 32.4601 25.0742 32.295 26.9381C32.1794 28.2164 31.6923 29.437 31.3538 30.6742C31.0071 31.9113 30.809 33.2638 31.2548 34.468C31.8079 35.969 33.4012 37.0164 35.0027 36.9257C35.3412 36.9092 35.7374 36.7855 35.82 36.4556C35.8778 36.2247 35.754 36.002 35.6962 35.771C35.1843 33.6432 40.7319 32.3979 42.1601 32.1504C44.5211 31.7381 46.9234 31.7463 49.3175 31.7628C50.5145 31.7711 51.9262 31.8865 52.5536 32.9092C53.181 33.9401 52.6361 35.2597 52.0913 36.3319C51.7941 36.9174 55.5338 36.3236 55.7402 36.2494C57.0032 35.8535 58.2911 35.235 58.9597 34.0308C59.777 32.5628 59.4055 30.7484 59.1083 29.0989C58.2828 24.5381 58.8607 19.9113 58.0434 15.3834C57.2922 11.2268 55.2448 7.29273 52.1986 4.34841C51.6455 3.81232 50.7704 3.07006 49.9284 3.14428C49.1028 3.21851 49.301 3.70511 48.4754 3.19377C47.0142 2.28655 46.4281 0.752537 44.4881 0.538105C42.1766 0.282435 39.1304 1.30511 37.0583 2.26181C33.4012 3.96903 30.6604 7.14428 29.6367 10.8969Z" fill="#161960"/>
<path d="M55.0219 23.8454C54.9641 23.8454 54.9146 23.8371 54.8651 23.8124C54.6835 23.7381 54.6257 23.5402 54.6009 23.4495C54.5761 23.3423 54.6339 23.2268 54.7413 23.2021C54.8486 23.1691 54.9559 23.2351 54.9889 23.3423C55.0054 23.4 55.0137 23.4247 55.0219 23.433C55.0137 23.4083 55.0549 23.3588 55.0715 23.2845C55.088 23.2103 55.1127 23.1278 55.121 23.0454C55.1705 22.7897 55.2283 22.5093 55.4347 22.2866C55.4842 22.2289 55.5503 22.1794 55.608 22.1299C55.7236 22.0309 55.8062 21.965 55.7979 21.899C55.7979 21.8495 55.7401 21.7835 55.6823 21.7175C55.6411 21.6681 55.5998 21.6186 55.5668 21.5691C55.3769 21.2804 55.3769 20.8763 55.575 20.4309C55.6163 20.3485 55.6493 20.2495 55.6906 20.1505C55.9383 19.5732 56.2354 18.8557 56.8216 18.6165C57.1105 18.5011 57.4325 18.5175 57.7874 18.6578C57.8947 18.699 57.936 18.8227 57.8947 18.9217C57.8535 19.0289 57.7379 19.0784 57.6306 19.0289C57.3747 18.9217 57.1683 18.9134 56.9784 18.9876C56.5492 19.1608 56.285 19.7959 56.0703 20.3072C56.0291 20.4062 55.9878 20.5052 55.9465 20.5959C55.8805 20.7443 55.7484 21.1072 55.9052 21.3464C55.93 21.3876 55.963 21.4206 55.9878 21.4536C56.0786 21.5608 56.1859 21.6928 56.1942 21.8825C56.2024 22.1464 56.0125 22.3114 55.8557 22.4433C55.8062 22.4845 55.7566 22.5258 55.7154 22.567C55.5915 22.699 55.5503 22.9052 55.509 23.1278C55.4925 23.2186 55.476 23.3093 55.4512 23.4C55.4099 23.5485 55.3109 23.7299 55.1458 23.8041C55.121 23.8289 55.0632 23.8454 55.0219 23.8454Z" fill="#161960"/>
<path d="M33.426 19.5401C32.3363 18.971 31.2796 19.5978 31.2053 20.7772C31.1062 22.2535 32.1216 23.6473 33.4177 24.3566C33.6736 24.4968 33.9543 24.6205 34.2515 24.637C34.8955 24.6783 35.4155 24.1174 35.0275 23.5401C34.6973 23.0535 34.5157 22.5752 34.3093 22.0061C34.0204 21.1813 33.7232 20.3649 33.426 19.5401Z" fill="#FF8B6A"/>
<path d="M56.6731 18.9711C56.4915 18.7814 56.2686 18.6247 56.0292 18.5257C55.5586 18.336 55.3522 18.4515 54.9642 18.7072C54.8074 19.936 54.5762 21.1566 54.3368 22.369C54.2625 22.7401 54.0396 23.235 54.1634 23.6144C54.3038 24.0597 54.8321 24.134 55.2119 23.9608C55.5091 23.8288 55.7402 23.5731 55.9548 23.3257C56.4089 22.7814 56.8299 22.1958 57.0693 21.5278C57.3005 20.8597 57.3335 20.0927 57.0198 19.4577C56.929 19.2762 56.8134 19.1113 56.6731 18.9711Z" fill="#FF8B6A"/>
<path d="M40.5669 39.9194C40.7815 39.8205 40.9879 39.6885 41.1447 39.4658C41.5162 38.9463 41.5327 38.2617 41.5162 37.6184C41.4254 33.2803 40.9383 28.9339 40.5586 24.6122C40.5751 24.7772 42.35 25.3298 42.5151 25.3958C43.1508 25.6514 43.7947 25.9071 44.4304 26.1628C44.9174 26.3607 45.9246 26.5421 46.2961 26.8968C47.0803 27.6555 47.2207 30.1298 47.3858 31.1772C47.6335 32.7277 47.7408 34.303 47.7243 35.87C47.716 37.0164 47.6665 38.2782 48.4012 39.1607C48.7397 39.5731 49.2185 39.8452 49.6147 40.2081C50.5889 41.0823 50.1844 41.9236 49.5982 42.905C48.9295 44.0267 48.1535 45.0906 47.295 46.0803C46.6428 46.8225 45.8833 47.5483 44.9174 47.7463C43.4232 48.0514 42.0033 46.9792 40.9796 45.8493C40.1128 44.8844 39.2625 43.6803 38.924 42.4102C38.7837 41.8906 38.6516 41.0493 39.0561 40.5957C39.4194 40.1669 40.0468 40.1586 40.5669 39.9194Z" fill="#FF8B6A"/>
<path d="M41.7887 37.173C43.7865 37.6514 45.8338 37.94 47.8894 38.039C47.716 37.3462 47.716 36.5874 47.7243 35.8617C47.7408 34.2864 47.6252 32.7194 47.3776 31.1689C47.2125 30.1215 47.0721 27.6472 46.2878 26.8885C45.9164 26.5338 44.9092 26.3441 44.4222 26.1545C43.7865 25.8988 43.1426 25.6431 42.5069 25.3874C42.3418 25.3215 40.5669 24.7689 40.5504 24.6039C40.9219 28.7277 41.3677 32.8761 41.4915 37.0246C41.5906 37.0823 41.6896 37.1235 41.7887 37.173Z" fill="#161960"/>
<path d="M35.0193 10.9299C38.4618 6.83089 51.4143 6.89687 54.0726 10.4762C55.5255 12.4391 55.1788 16.3979 55.2448 18.6907C55.2778 19.7463 55.476 20.6783 55.6493 21.701C55.8144 22.7154 55.4347 23.8701 55.1953 24.8515C54.6587 27.0618 53.8909 29.2144 52.8921 31.2597C52.1903 32.703 51.3566 34.1298 50.1265 35.169C46.8409 37.9402 41.4997 37.5113 38.792 34.1958C37.7601 32.9257 37.0336 31.4494 36.3979 29.9402C34.9367 26.501 33.8966 23.0866 33.8966 19.3422C33.8966 17.0907 33.4508 12.802 35.0193 10.9299Z" fill="#FF8B6A"/>
<path d="M45.3137 25.2968C45.2229 25.2968 45.1403 25.2474 45.1073 25.1566C45.0743 25.0494 45.1321 24.934 45.2394 24.901C45.5531 24.8102 45.7595 24.4226 45.6687 24.1092C45.5778 23.7958 45.1981 23.5814 44.8844 23.6721C44.8266 23.6886 44.7606 23.6803 44.7028 23.6391C44.6533 23.5979 44.6202 23.5401 44.6202 23.4742L44.6615 20.9504C44.6615 20.835 44.7606 20.7525 44.8679 20.7525C44.9835 20.7525 45.066 20.8432 45.066 20.9587L45.033 23.2515C45.487 23.2515 45.9246 23.5566 46.0567 24.002C46.2135 24.5298 45.8833 25.1319 45.3549 25.2886C45.3467 25.2968 45.3302 25.2968 45.3137 25.2968Z" fill="#161960"/>
<path d="M40.732 22.6989C40.5421 22.8556 40.2779 22.9216 40.0385 22.8556C39.6836 22.7567 39.502 22.4515 39.469 22.1051C39.4194 21.5773 39.7083 21.1072 40.3027 21.1731C40.5751 21.2061 40.831 21.3876 40.9466 21.635C41.0869 21.9566 41.0044 22.4762 40.732 22.6989Z" fill="#161960"/>
<path d="M50.1348 22.4761C49.9449 22.6328 49.6808 22.6988 49.4414 22.6328C49.0864 22.5339 48.9048 22.2287 48.8718 21.8823C48.8223 21.3545 49.1112 20.8844 49.7055 20.9504C49.9779 20.9833 50.2338 21.1648 50.3494 21.4122C50.4898 21.7339 50.4072 22.2534 50.1348 22.4761Z" fill="#161960"/>
<path d="M49.0863 19.4494C49.0285 19.4577 48.9707 19.4577 48.9047 19.4659C48.8056 19.4742 48.6983 19.4824 48.6322 19.4082C48.5332 19.301 48.6157 19.136 48.7148 19.0288C49.4908 18.1876 50.6631 18.2783 51.4804 19.0206C52.017 19.5154 51.6785 20.1175 51.0263 19.8206C50.2586 19.4659 49.8788 19.3752 49.0863 19.4494Z" fill="#161960"/>
<path d="M39.3203 19.7459C39.3781 19.7377 39.4359 19.7212 39.5019 19.7129C39.601 19.6964 39.7083 19.6634 39.7496 19.581C39.8156 19.449 39.6835 19.3088 39.5597 19.2428C38.5691 18.6573 37.4711 19.0861 36.9098 20.0346C36.5383 20.6696 37.0336 21.148 37.5784 20.6696C38.2058 20.1088 38.5526 19.9109 39.3203 19.7459Z" fill="#161960"/>
<path d="M46.3044 10.0308C44.9505 11.0617 43.2334 11.4988 41.5576 11.804C39.6919 12.1421 37.6033 12.4555 36.431 13.9483C35.6302 14.9627 35.4486 16.3236 35.3248 17.6102C35.1101 19.8287 35.0028 22.0555 34.9946 24.2906C33.0628 22.4431 32.617 19.573 32.3363 16.9256C32.1052 14.7648 31.9318 12.4968 32.7656 10.4844C33.8388 7.87821 36.4558 6.1545 39.18 5.43698C41.3182 4.87615 44.8102 4.2576 46.8906 5.27203C49.1443 6.37718 47.8317 8.8679 46.3044 10.0308Z" fill="#161960"/>
<path d="M48.3929 6.16282C48.3021 6.31128 48.2443 6.47622 48.2031 6.64117C47.9141 7.90302 48.5828 9.10715 47.6582 10.2123C49.5817 11.7958 51.1337 13.5113 52.5536 15.5649C53.9405 17.569 54.8651 19.9278 54.9807 22.3607C55.7319 19.5401 56.4914 16.6618 56.3676 13.7504C56.2437 10.8391 55.088 7.8123 52.7022 6.12158C51.8272 5.50303 50.82 5.17313 49.7385 5.33808C49.235 5.42056 48.7314 5.65148 48.4425 6.0721C48.426 6.11334 48.4094 6.13808 48.3929 6.16282Z" fill="#161960"/>
<path d="M47.1876 25.7256C47.0967 25.7256 47.0142 25.6762 46.9894 25.5854C46.9564 25.4782 47.0142 25.3628 47.1133 25.3298C49.9118 24.3813 52.5453 22.8226 54.7247 20.8267C54.8072 20.7525 54.9393 20.7607 55.0136 20.8349C55.0879 20.9174 55.0797 21.0494 54.9971 21.1236C52.7764 23.1607 50.0934 24.7442 47.2371 25.7091C47.2288 25.7174 47.2123 25.7256 47.1876 25.7256Z" fill="white"/>
<path d="M50.209 29.1318C50.1347 29.1318 50.0687 29.0988 50.0274 29.0328C49.9696 28.9339 50.0027 28.8102 50.0935 28.7524C52.3554 27.3999 54.2294 25.4617 55.5255 23.1607C55.5833 23.0617 55.6989 23.0287 55.7979 23.0865C55.897 23.1442 55.93 23.2679 55.8805 23.3586C54.5514 25.7174 52.6278 27.705 50.3081 29.0988C50.2751 29.1236 50.242 29.1318 50.209 29.1318Z" fill="white"/>
<path d="M42.837 25.9154C42.8205 25.9154 42.7958 25.9154 42.7792 25.9071C39.8569 25.1896 37.0418 23.837 34.656 21.9978C34.5652 21.9319 34.5487 21.7999 34.623 21.7174C34.6973 21.6267 34.8211 21.6102 34.9036 21.6844C37.2482 23.4906 40.0054 24.8185 42.8783 25.5195C42.9856 25.5442 43.0517 25.6597 43.0269 25.7669C43.0022 25.8494 42.9196 25.9071 42.837 25.9154Z" fill="white"/>
<path d="M40.1128 29.5688C40.0798 29.5688 40.0468 29.5606 40.0137 29.5523C37.5784 28.3647 35.4898 26.5503 33.9708 24.307C33.9048 24.2163 33.9295 24.0925 34.0286 24.0266C34.1194 23.9606 34.2433 23.9853 34.3093 24.0843C35.7953 26.2699 37.8261 28.0348 40.1954 29.1894C40.2944 29.2389 40.3357 29.3626 40.2862 29.4616C40.2532 29.5193 40.1871 29.5606 40.1128 29.5688Z" fill="white"/>
<path d="M44.5955 23.1194C42.2675 23.9524 41.8464 26.072 40.0715 26.7318C38.2966 27.3916 37.6775 26.4926 37.0831 27.5153C36.4887 28.5462 37.9169 35.6637 44.2157 36.1256C50.5146 36.5957 53.9323 29.2225 53.5856 27.8781C53.2306 26.5338 49.4579 26.7648 48.88 25.8658C48.2856 24.9586 46.1475 22.5586 44.5955 23.1194Z" fill="white"/>
<path d="M63.2277 43.9854C67.5452 47.0205 71.6151 50.4184 75.2557 54.2369C78.112 57.239 80.4731 60.5627 83.2138 63.6637C84.3118 64.9091 85.03 66.138 85.9216 67.5235C86.3013 68.1173 87.4653 69.338 87.5314 70.0225C87.2589 67.0864 86.8297 64.1668 86.2435 61.272C85.8555 59.3668 85.2694 57.8163 84.1962 56.2081C83.7835 55.5895 83.7339 55.1194 83.6679 54.3936C83.6266 53.9813 83.6761 52.0596 84.6255 52.8184C84.9227 53.0576 84.9144 53.6184 85.2859 53.6926C85.5584 53.7421 85.7895 53.4617 86.0619 53.4452C86.4747 53.4287 86.7389 54.006 87.1599 53.973C87.6635 53.9318 87.6965 53.1153 88.167 52.9256C88.8605 52.6452 89.5127 54.0143 90.1483 53.6266C90.4785 53.4205 90.4703 52.8679 90.8253 52.7112C91.3123 52.505 91.7416 53.2885 92.2617 53.206C92.6497 53.14 92.79 52.6534 93.1285 52.4473C94.0118 51.9112 94.2347 52.8679 94.1852 53.5524C94.1026 54.6741 93.9706 55.6802 94.1604 56.8431C94.5567 59.3174 95.6051 61.6349 96.6122 63.9112C99.6337 70.6988 102.482 77.6431 103.728 84.9668C104.001 86.5668 104.199 88.208 104.001 89.8163C103.803 91.4328 103.184 93.0328 102.02 94.1709C100.005 96.1421 96.7526 96.3235 94.1026 95.3586C91.4609 94.3936 89.2815 92.4885 87.1764 90.6245C81.15 85.2967 75.1236 79.9689 69.0972 74.6411C69.1302 74.6081 69.155 74.5833 69.188 74.5503C64.3669 71.3091 52.0004 60.0926 52.0004 60.0926C51.1996 57.6019 59.4137 41.305 63.2277 43.9854Z" fill="white"/>
<path d="M70.6328 68.2906L56.4831 109.157L28.5718 101.297L37.6279 58.5587L70.6328 68.2906Z" fill="#161960"/>
<path d="M68.3047 67.0287L54.155 107.895L26.2355 100.035L35.2998 57.2968L68.3047 67.0287Z" fill="#8159EE"/>
<path d="M40.3108 68.4142L38.8 74.4349L56.871 79.639L58.8606 74.2452L40.3108 68.4142Z" fill="white"/>
<path d="M52.8506 92.4472C42.5893 91.6224 34.7219 89.3461 29.2074 87.276C21.2327 84.2822 15.7182 80.7771 8.69288 82.6987C7.37203 83.0616 1.54377 84.6616 0.957646 88.6863C0.388028 92.5626 3.09579 96.1585 6.98405 96.6863L50.729 100.48L52.8506 92.4472Z" fill="#FF8B6A"/>
<path d="M53.6844 102.699C52.4461 102.171 51.1913 101.668 49.953 101.14C48.5661 100.554 46.6179 100.282 46.1143 98.6576C45.8666 97.8493 45.9409 96.9833 46.0152 96.1504C46.0895 95.3421 46.1638 94.5174 46.4528 93.7586C46.7417 92.9998 47.2865 92.2988 48.0378 92.0019C49.1192 91.5813 49.9695 91.8122 50.7786 90.905C51.439 90.171 51.7279 89.7091 52.7764 89.3462C54.188 88.8596 55.4593 88.2081 57.0031 88.3071C57.969 88.373 58.9018 88.7194 59.8099 89.0658C60.2887 89.2473 60.7758 89.437 61.1638 89.7669C61.6096 90.1462 61.8655 90.8803 61.461 91.3091C61.0812 91.7132 60.4125 91.5566 59.8759 91.4081C59.3393 91.2596 58.6129 91.2349 58.3817 91.738C59.3806 92.439 60.5033 92.9586 61.6839 93.272C62.6415 93.5277 63.9458 93.9648 63.756 95.2514C63.5908 96.3813 61.7251 96.6452 61.6096 97.7833C61.5435 98.4266 62.1049 99.037 61.948 99.6638C61.7747 100.357 60.9079 100.53 60.2557 100.818C59.6696 101.074 59.1742 101.519 58.8358 102.056C58.5221 102.567 58.5221 103.029 57.969 103.309C56.7389 103.944 54.8154 103.185 53.6844 102.699Z" fill="#FF8B6A"/>
<path d="M23.4039 73.6925C20.9273 72.0348 18.4094 70.4348 15.9741 68.7111C15.0082 68.0265 14.1662 67.1688 13.4727 66.2039C13.2416 65.874 11.6896 63.6059 11.9785 63.2513C8.1728 67.7791 5.11834 72.9255 2.93067 78.4183C1.09799 83.0286 -2.15462 90.1296 2.07211 94.2945C3.82224 96.0183 6.36488 96.6121 8.77544 97.0904C15.7017 98.4677 22.7352 99.4904 29.7935 99.3585C31.3208 99.3255 32.8975 99.0533 34.367 99.4574C35.9768 99.9028 37.5866 100.34 39.1881 100.785C40.0466 101.024 40.8804 101.173 41.6482 101.593C42.3829 101.998 43.1672 102.509 44.0505 102.237C45.0659 101.923 45.4869 100.464 44.7852 99.6636C44.6036 99.4574 44.3725 99.2925 44.2156 99.0698C44.0588 98.8389 44.0175 98.5007 44.2156 98.311C44.5623 97.9894 45.198 98.41 45.5695 98.1213C45.941 97.8327 45.6273 97.2471 45.2723 96.9337C44.9173 96.6286 44.4963 96.1832 44.7192 95.7708C44.9999 95.2595 45.9822 95.4739 46.1639 94.9213C46.329 94.41 45.553 94.0306 45.5612 93.4945C45.5777 92.8183 46.6344 92.6945 46.8243 92.0347C47.0059 91.4079 46.6014 90.2781 46.2216 89.8079C45.7594 89.2389 45.0164 88.9172 44.2899 88.9667C43.4479 89.0244 42.6388 89.5523 41.8133 89.3791C40.9795 89.2059 40.3439 88.3647 39.4936 88.4141C39.023 88.4389 38.6267 88.744 38.1975 88.9337C36.8353 89.5358 35.2586 88.975 33.9294 88.3234C31.7418 87.2512 29.4798 86.9213 27.1849 86.1543C24.6835 85.3214 22.2481 84.2657 20.0275 82.8554C21.3896 80.8677 22.7435 78.8884 24.1056 76.9008C24.4441 76.4142 24.7908 75.8698 24.7248 75.276C24.6422 74.575 23.9983 74.0884 23.4039 73.6925Z" fill="white"/>
<path d="M49.5156 48.6535C49.4083 48.6535 49.3257 48.5793 49.3092 48.472C49.2927 48.3566 49.3753 48.2494 49.4908 48.2329C50.9438 48.0184 52.1408 46.6494 52.1573 45.1813V45.0329C52.1573 44.6535 52.1573 44.1751 52.4958 43.87C52.7847 43.6143 53.1644 43.6226 53.5029 43.639C53.635 43.639 53.7588 43.6473 53.8826 43.639C54.477 43.5813 55.0136 43.004 55.0962 42.3277C55.1705 41.7256 54.9393 41.0411 54.4522 40.439C53.9982 39.8865 53.3956 39.4576 52.8094 39.037C52.7104 38.971 52.6939 38.839 52.7599 38.7401C52.826 38.6411 52.9581 38.6246 53.0571 38.6906C53.668 39.1195 54.2954 39.5731 54.7825 40.1669C55.3356 40.8514 55.608 41.6597 55.5172 42.3689C55.4016 43.2514 54.7164 43.9772 53.9239 44.0514C53.7836 44.0679 53.635 44.0597 53.4864 44.0597C53.1974 44.0514 52.9415 44.0432 52.7764 44.1834C52.5783 44.3566 52.5866 44.6947 52.5866 45.0246V45.1813C52.57 46.8473 51.2079 48.4061 49.5569 48.6452C49.5321 48.6535 49.5239 48.6535 49.5156 48.6535Z" fill="#161960"/>
<path d="M40.8144 48.8101C40.7814 48.8101 40.7484 48.8018 40.7154 48.7854C39.9063 48.34 39.0726 47.8864 38.4204 47.1854C37.6774 46.3854 37.3389 45.3792 37.5206 44.4967C37.5453 44.373 37.5783 44.2493 37.6196 44.1256C37.7104 43.8039 37.8013 43.4988 37.6857 43.2431C37.5536 42.9379 37.2151 42.8225 36.8106 42.6905C36.5299 42.5915 36.2327 42.5008 35.9851 42.3194C35.3742 41.874 35.2503 41.0328 35.3989 40.3977C35.5558 39.7379 35.952 39.1771 36.307 38.674C36.3731 38.5751 36.5052 38.5586 36.6042 38.6245C36.7033 38.6905 36.7198 38.8225 36.6538 38.9215C36.307 39.4081 35.9438 39.9194 35.8117 40.4967C35.6961 40.9916 35.7787 41.6431 36.2327 41.9812C36.4226 42.1214 36.6785 42.2039 36.9427 42.2946C37.3967 42.4431 37.859 42.5998 38.0654 43.0781C38.2388 43.474 38.1149 43.8781 38.0159 44.241C37.9829 44.3565 37.9498 44.4637 37.9251 44.5792C37.7682 45.3297 38.0654 46.1874 38.7176 46.8885C39.3202 47.54 40.1292 47.9854 40.9053 48.406C41.0043 48.4637 41.0456 48.5874 40.9878 48.6946C40.963 48.7689 40.8887 48.8101 40.8144 48.8101Z" fill="#161960"/>
<path d="M91.0976 87.5153C91.0068 87.5153 90.916 87.4494 90.8912 87.3586C88.8604 79.4164 87.2093 71.2679 85.9793 63.1442C85.9628 63.0288 86.0453 62.9216 86.1609 62.9051C86.2765 62.8886 86.3838 62.971 86.4003 63.0865C87.6303 71.202 89.2814 79.3339 91.304 87.2597C91.337 87.3751 91.2627 87.4906 91.1554 87.5153C91.1389 87.5153 91.1141 87.5153 91.0976 87.5153Z" fill="#161960"/>
<path d="M29.2157 86.971C29.1826 86.971 29.1496 86.9628 29.1248 86.9463C23.4452 84.1999 17.1216 82.9298 10.8228 83.2844C10.7072 83.2679 10.6081 83.202 10.5999 83.0865C10.5916 82.971 10.6824 82.8721 10.798 82.8638C17.1794 82.5092 23.569 83.7958 29.3065 86.5669C29.4138 86.6164 29.4551 86.7401 29.4056 86.8473C29.3725 86.9216 29.2982 86.971 29.2157 86.971Z" fill="#161960"/>
<path d="M215.497 93.6761C211.782 87.0534 205.88 76.5379 200.729 67.441C198.458 69.6926 195.817 71.6555 193.439 73.5194C191.392 75.1276 189.46 76.9008 187.52 78.641C192.548 86.1462 197.616 93.6761 201.934 101.511C204.171 105.247 209.025 106.451 212.748 104.183C216.331 101.989 217.553 97.3544 215.497 93.6761Z" fill="#A2493B"/>
<path d="M165.941 57.4287C164.81 58.7813 140.399 79.7627 129.229 89.338C126.166 91.9689 121.568 91.705 118.819 88.7442C115.979 85.6844 116.186 80.8926 119.281 78.0885C120.891 76.7277 122.336 75.3998 124.144 74.3936C125.861 73.4452 127.495 72.3895 129.039 71.1607C132.135 68.7112 134.818 65.7833 137.377 62.7895C141.653 57.7998 145.624 52.4473 150.742 48.2658C151.659 47.5236 152.823 46.204 154.094 46.4926C155.332 46.7813 156.81 48.8514 157.702 49.6926C160.443 52.2658 163.192 54.8473 165.941 57.4287Z" fill="#A2493B"/>
<path d="M113.899 43.9772C114.18 43.9772 114.452 43.9854 114.716 44.0102C116.706 44.2081 116.574 44.3318 117.102 46.3359C118.233 50.5751 119.512 54.7813 120.932 58.9297C123.095 65.239 125.588 71.4328 128.395 77.4782C129.345 79.5235 131.607 82.3112 131.598 84.5545C131.59 87.3916 128.915 90.006 126.381 90.7978C116.557 93.8658 115.517 80.0761 114.047 73.9565C112.553 67.7462 111.059 61.5359 109.557 55.3256C109.111 53.4617 106.329 46.8638 107.575 45.6019C107.922 45.2555 108.401 45.0823 108.871 44.9421C110.382 44.4968 112.231 43.9937 113.899 43.9772Z" fill="#A2493B"/>
<path d="M107.806 47.9359C108.112 48.274 108.45 48.5874 108.822 48.8513C109.21 49.1318 110.349 49.874 110.861 49.5524C111.761 48.9751 112.652 48.406 113.552 47.8287C114.675 47.1111 115.789 46.8555 116.656 45.7833C118.183 43.9029 118.86 41.1812 118.415 38.806C118.233 37.8246 117.977 36.8349 118.142 35.8534C118.258 35.1771 118.563 34.4266 118.175 33.8575C117.944 33.5194 117.506 33.3545 117.102 33.3792C116.45 33.4204 115.732 33.8658 115.492 34.4843C115.278 35.0452 115.36 36.1998 114.774 36.538C113.99 36.9916 112.76 36.5132 112.083 36.0761C109.565 34.4596 108.335 31.4658 106.271 29.2967C105.858 28.8679 105.239 28.439 104.719 28.7194C104.364 28.9091 104.232 29.371 104.298 29.7668C104.364 30.1627 104.595 30.5091 104.818 30.8472C105.66 32.1091 106.494 33.3709 107.336 34.641C107.46 34.8307 107.798 35.3421 107.592 35.5813C107.41 35.7874 106.964 35.5565 106.791 35.4246C106.568 35.2514 106.395 35.0204 106.23 34.7895C105.297 33.5029 104.323 32.2411 103.357 30.9792C103.043 30.5751 102.721 30.1545 102.275 29.8988C101.83 29.6431 101.227 29.5771 100.822 29.8823C100.17 30.3689 100.633 31.1689 100.971 31.6802C101.475 32.4307 102.02 33.1483 102.581 33.8575C103.704 35.2761 104.884 36.6452 105.949 38.105C106.139 38.3689 106.329 38.7565 106.098 38.9874C105.957 39.1276 105.718 39.1276 105.545 39.0452C105.363 38.9544 105.231 38.7978 105.107 38.641C103.819 37.0575 102.531 35.474 101.244 33.8905C100.996 33.5854 100.501 32.9421 100.038 33.1235C99.5759 33.3132 99.675 34.006 99.8071 34.3689C100.286 35.639 101.186 36.6699 102.036 37.7008C102.87 38.7153 103.605 39.7957 104.356 40.8761C104.422 40.9751 104.488 41.0823 104.463 41.1977C104.43 41.3462 104.24 41.4122 104.1 41.3709C103.951 41.3297 103.844 41.2225 103.737 41.1153C102.829 40.1998 101.871 39.3338 100.864 38.5256C100.6 38.3194 100.22 38.1132 99.9639 38.3194C99.8318 38.4349 99.7906 38.6328 99.8236 38.7977C99.9309 39.3173 100.426 40.0514 100.732 40.4802C101.161 41.0905 101.714 41.6101 102.3 42.072C103.192 42.7812 104.166 43.3998 104.958 44.2081C105.85 45.1153 106.486 46.2287 107.253 47.2349C107.41 47.474 107.6 47.7132 107.806 47.9359Z" fill="#A2493B"/>
<path d="M168.648 261.808C168.698 262.657 168.739 263.498 168.789 264.348C168.797 264.562 168.813 264.777 168.756 264.983C168.706 265.189 168.574 265.387 168.376 265.47C168.178 265.552 167.938 265.503 167.757 265.387C167.575 265.272 167.435 265.098 167.319 264.917C166.989 264.43 166.741 263.87 166.659 263.284C166.593 262.814 166.617 262.352 166.56 261.882C166.494 261.329 166.543 260.752 166.684 260.216C166.733 260.026 166.816 259.812 167.005 259.762C167.179 259.713 167.352 259.82 167.493 259.927C168.186 260.472 168.599 260.925 168.648 261.808Z" fill="white"/>
<path d="M155.382 272.579C154.672 273.742 153.954 274.921 153.624 276.241C153.293 277.56 153.401 279.062 154.235 280.134C155.233 281.412 156.975 281.808 158.593 281.965C159.873 282.088 161.161 282.105 162.449 282.031C163.225 281.981 164.017 281.899 164.702 281.527C165.924 280.876 166.543 279.474 166.824 278.121C167.113 276.769 167.154 275.358 167.641 274.064C168.062 272.942 168.797 271.969 169.301 270.88C169.804 269.791 170.052 268.48 169.49 267.424C169.433 267.309 169.358 267.202 169.243 267.144C168.937 267.004 168.64 267.358 168.491 267.664C167.732 269.173 166.964 270.682 166.205 272.191C165.553 273.478 164.892 274.773 163.943 275.853C163.769 276.043 163.538 276.497 163.241 276.455C163.076 276.431 162.936 276.323 162.795 276.224C161.466 275.235 159.716 274.822 158.09 275.111C157.801 275.16 157.512 275.235 157.223 275.218C156.934 275.21 156.629 275.103 156.455 274.864C156.208 274.517 156.571 273.709 156.629 273.305C156.744 272.505 156.959 271.721 157.248 270.971C156.554 271.697 155.861 272.431 155.176 273.156" fill="white"/>
<path d="M157.768 274.039C158.057 273.651 158.296 273.198 158.725 272.983C159.056 272.818 159.46 272.818 159.782 272.637C160.244 272.381 160.451 271.837 160.591 271.325C160.888 270.229 161.045 269.099 161.202 267.969C161.474 266.022 161.739 264.084 162.011 262.138C161.871 261.948 161.549 262.031 161.425 262.229C161.301 262.426 161.309 262.674 161.309 262.913C161.318 264.068 160.963 265.206 160.418 266.229C159.881 267.251 159.155 268.167 158.387 269.024C157.751 269.734 157.083 270.418 156.571 271.218C156.174 271.837 155.877 272.513 155.588 273.189C155.423 273.569 155.258 273.956 155.209 274.369C155.176 274.657 155.184 275.086 155.374 275.325C155.613 275.639 155.828 275.474 156.166 275.317C156.794 275.045 157.347 274.6 157.768 274.039Z" fill="#161960"/>
<path d="M166.675 260.101C167.146 260.043 167.649 260.134 168.004 260.447C168.508 260.892 168.566 261.635 168.599 262.303C168.64 263.127 168.673 263.952 168.714 264.777C168.524 264.793 168.434 264.538 168.45 264.348C168.467 264.158 168.5 263.927 168.343 263.804C168.161 263.655 167.897 263.82 167.724 263.977C166.196 265.379 164.933 267.062 164.017 268.917C163.522 269.923 163.117 270.987 162.993 272.109C162.87 273.222 163.043 274.393 163.621 275.358C163.794 275.647 164.025 275.927 164.355 276.002C164.702 276.076 165.057 275.895 165.338 275.664C166.13 275.029 166.601 274.088 166.956 273.14C167.311 272.191 167.575 271.202 168.046 270.311C168.483 269.486 169.094 268.736 169.342 267.837C169.779 266.22 168.937 264.546 168.813 262.88C168.756 262.055 168.855 261.173 168.442 260.455C168.095 259.853 167.385 259.474 166.692 259.523C166.139 259.565 165.264 259.985 165.165 260.596C165.635 260.571 166.155 260.167 166.675 260.101Z" fill="#161960"/>
<path d="M157.215 241.866C157.933 244.892 158.701 247.903 159.559 250.888C160.872 255.449 162.316 259.73 162.704 264.521C162.762 265.206 162.812 265.932 163.216 266.492C163.225 266.509 163.241 266.517 163.249 266.534C163.563 266.88 164.124 266.913 164.554 266.971C165.024 267.028 165.495 266.748 165.734 266.336C165.932 265.998 165.982 265.585 166.18 265.247C166.461 264.76 166.956 264.464 167.237 263.96C167.534 263.424 167.658 262.798 167.674 262.187C167.699 261.198 167.451 260.233 167.286 259.251C166.774 256.224 167.055 253.115 167.6 250.097C167.922 248.29 168.343 246.509 168.739 244.719C169.036 243.391 169.416 242.047 169.647 240.703L157.215 241.866Z" fill="#A2493B"/>
<path d="M164.248 277.214C164.752 277.544 165.222 277.494 165.594 276.835C165.8 276.472 165.99 276.092 166.18 275.713C166.304 275.474 166.419 275.226 166.469 274.962C166.518 274.698 166.568 274.146 166.411 273.94C166.097 274.228 165.709 274.781 165.396 275.07C165.288 275.169 165.165 275.276 165.024 275.292C164.843 275.309 164.669 275.169 164.595 275.004C164.405 274.583 164.331 273.989 164.232 273.536C164.108 272.983 164.025 272.414 164.034 271.845C164.05 270.575 164.496 269.346 165.131 268.249C165.767 267.152 166.576 266.171 167.369 265.181C167.658 264.826 167.947 264.463 168.12 264.043C168.302 263.622 168.359 263.136 168.186 262.715C167.996 262.261 167.567 261.956 167.138 261.701C166.485 261.305 165.808 260.958 165.098 260.678C164.669 260.505 164.215 260.348 163.753 260.315C163.291 260.29 162.795 260.406 162.449 260.719C162.102 261.041 161.937 261.519 161.821 261.973C161.351 263.828 161.301 265.767 160.921 267.639C160.541 269.511 159.741 271.424 158.164 272.521C157.471 273.008 156.513 273.338 156.059 274.105C155.58 274.921 156.348 275.317 157.066 275.193C158.725 274.921 160.401 275.078 161.945 275.746C162.696 276.068 163.381 276.513 164.009 277.041C164.1 277.107 164.174 277.164 164.248 277.214Z" fill="#161960"/>
<path d="M155.225 275.697C155.729 277.016 156.95 277.989 158.296 278.418C159.65 278.847 161.111 278.789 162.498 278.517C163.604 278.303 164.719 277.932 165.553 277.173C166.386 276.414 166.865 275.185 166.494 274.13C166.229 275.928 164.71 277.371 162.977 277.899C161.243 278.427 159.336 278.154 157.644 277.511C157.091 277.305 156.538 277.041 156.15 276.596C155.811 276.208 155.621 275.705 155.531 275.194C155.242 273.643 155.819 272.348 156.736 271.152C155.118 271.713 154.705 274.328 155.225 275.697Z" fill="#161960"/>
<path d="M156.942 273.561C157.041 273.511 157.181 273.478 157.264 273.561C157.321 273.618 157.33 273.717 157.305 273.8C157.239 274.039 157 274.171 156.777 274.286C156.694 274.327 156.612 274.368 156.521 274.352C156.034 274.278 156.793 273.635 156.942 273.561Z" fill="white"/>
<path d="M159.328 271.936C159.435 271.903 159.567 271.894 159.666 271.952C159.765 272.01 159.831 272.142 159.79 272.249C159.749 272.356 159.633 272.405 159.526 272.438C159.418 272.471 159.311 272.488 159.196 272.496C159.113 272.504 159.014 272.496 158.965 272.438C158.775 272.216 159.171 271.993 159.328 271.936Z" fill="white"/>
<path d="M160.352 269.239C160.434 269.198 160.541 269.239 160.599 269.313C160.657 269.387 160.673 269.486 160.673 269.577C160.673 269.742 160.541 270.549 160.253 270.187C160.112 270.014 160.121 269.346 160.352 269.239Z" fill="white"/>
<path d="M160.682 266.946C160.698 266.896 160.715 266.855 160.756 266.822C160.789 266.789 160.847 266.781 160.888 266.806C160.921 266.83 160.938 266.88 160.946 266.921C160.971 267.045 161.012 267.704 160.748 267.638C160.525 267.581 160.641 267.078 160.682 266.946Z" fill="white"/>
<path d="M161.268 265.486C161.317 265.494 161.367 265.461 161.392 265.42C161.416 265.378 161.433 265.329 161.441 265.28C161.466 265.131 161.598 264.521 161.293 264.769C161.152 264.876 160.996 265.453 161.268 265.486Z" fill="white"/>
<path d="M163.654 274.063C163.646 273.997 163.646 273.932 163.67 273.874C163.695 273.816 163.745 273.758 163.811 273.758C163.91 273.758 163.967 273.857 164.009 273.94C164.091 274.113 164.174 274.286 164.256 274.459C164.363 274.682 164.347 275.077 164.017 274.912C163.753 274.781 163.67 274.319 163.654 274.063Z" fill="white"/>
<path d="M163.695 272.834C163.802 272.851 163.876 272.727 163.918 272.62C163.992 272.43 164.05 272.232 164.099 272.034C164.124 271.944 164.132 271.82 164.058 271.762C163.744 271.532 163.249 272.785 163.695 272.834Z" fill="white"/>
<path d="M164.297 269.494C164.149 269.692 164.025 269.915 163.943 270.146C163.91 270.22 163.893 270.327 163.959 270.368C164.033 270.418 164.124 270.36 164.19 270.294C164.363 270.113 164.504 269.898 164.586 269.668C164.611 269.61 164.627 269.544 164.619 269.486C164.611 269.428 164.57 269.363 164.512 269.346C164.454 269.33 164.372 269.371 164.372 269.437" fill="white"/>
<path d="M164.884 268.043C164.851 268.141 164.826 268.257 164.9 268.339C164.95 268.397 165.041 268.413 165.115 268.389C165.189 268.364 165.255 268.315 165.305 268.265C165.453 268.125 165.948 267.457 165.602 267.317C165.288 267.177 164.95 267.836 164.884 268.043Z" fill="white"/>
<path d="M166.254 266.36C166.238 266.41 166.23 266.467 166.254 266.508C166.304 266.591 166.428 266.558 166.502 266.5C166.675 266.377 166.791 266.179 166.898 265.997C166.947 265.915 166.989 265.833 167.005 265.742C167.046 265.478 166.799 265.42 166.626 265.561C166.436 265.725 166.312 266.121 166.254 266.36Z" fill="white"/>
<path d="M157.264 273.561C157.264 273.561 160.021 273.437 163.67 273.874L164.116 274.822C164.116 274.822 159.204 273.973 156.818 274.113" fill="white"/>
<path d="M163.901 272.076C162.49 271.738 160.979 271.771 159.584 272.183C159.559 272.249 159.543 272.315 159.526 272.389C160.921 272.282 162.316 272.414 163.695 272.604" fill="white"/>
<path d="M164.067 270.377C162.894 269.899 161.656 269.709 160.401 269.882C160.376 269.717 160.393 269.552 160.451 269.404C161.755 269.041 163.167 269.173 164.389 269.75" fill="white"/>
<path d="M160.674 267.425C160.698 267.309 160.723 267.185 160.748 267.07C162.325 266.814 163.976 267.02 165.387 267.771C165.354 267.853 165.272 268.018 165.239 268.101C163.811 267.664 162.176 267.359 160.674 267.425Z" fill="white"/>
<path d="M166.642 266.047C166.56 266.13 166.51 266.204 166.485 266.328C164.826 265.668 163.051 265.297 161.26 265.231C161.285 265.14 161.309 265.041 161.342 264.95C163.183 264.711 165.024 265.156 166.642 266.047Z" fill="white"/>
<path d="M159.089 278.031C157.124 277.536 155.588 276.629 155.522 275.441C155.456 274.245 159.378 274.872 160.632 275.095C161.887 275.317 164.644 277.148 164.587 277.33C164.529 277.511 161.995 278.765 159.089 278.031Z" fill="white"/>
<path d="M181.601 263.713C181.634 264.562 181.667 265.412 181.7 266.253C181.708 266.467 181.716 266.682 181.791 266.888C181.865 267.086 182.014 267.276 182.212 267.342C182.418 267.408 182.649 267.333 182.823 267.201C182.996 267.07 183.112 266.88 183.219 266.69C183.5 266.171 183.698 265.593 183.722 264.999C183.747 264.529 183.681 264.067 183.689 263.589C183.698 263.028 183.599 262.467 183.409 261.94C183.343 261.758 183.235 261.552 183.046 261.511C182.872 261.478 182.707 261.602 182.575 261.725C181.931 262.336 181.568 262.83 181.601 263.713Z" fill="white"/>
<path d="M195.817 273.198C196.634 274.286 197.459 275.4 197.905 276.686C198.359 277.973 198.392 279.474 197.657 280.62C196.791 281.989 195.082 282.55 193.489 282.847C192.225 283.086 190.946 283.235 189.658 283.276C188.882 283.301 188.081 283.292 187.371 282.987C186.1 282.451 185.349 281.115 184.936 279.795C184.523 278.476 184.35 277.074 183.739 275.828C183.211 274.748 182.393 273.849 181.791 272.81C181.188 271.771 180.817 270.484 181.279 269.387C181.328 269.272 181.394 269.148 181.502 269.09C181.799 268.925 182.121 269.247 182.294 269.536C183.194 270.971 184.094 272.398 184.994 273.833C185.762 275.053 186.538 276.282 187.594 277.272C187.784 277.445 188.057 277.874 188.345 277.808C188.511 277.767 188.643 277.651 188.767 277.536C189.997 276.43 191.697 275.853 193.348 275.985C193.637 276.01 193.934 276.051 194.223 276.01C194.512 275.969 194.809 275.837 194.958 275.589C195.173 275.218 194.735 274.451 194.636 274.055C194.446 273.272 194.165 272.513 193.802 271.787C194.562 272.447 195.313 273.107 196.072 273.767" fill="white"/>
<path d="M193.579 274.872C193.257 274.517 192.977 274.088 192.531 273.907C192.184 273.767 191.788 273.808 191.449 273.659C190.962 273.453 190.706 272.925 190.525 272.43C190.12 271.367 189.864 270.253 189.6 269.148C189.154 267.235 188.7 265.329 188.255 263.416C188.37 263.218 188.709 263.268 188.849 263.449C188.989 263.63 189.006 263.886 189.022 264.117C189.13 265.272 189.584 266.369 190.219 267.334C190.855 268.298 191.656 269.14 192.506 269.932C193.2 270.575 193.934 271.193 194.52 271.944C194.975 272.521 195.329 273.173 195.684 273.816C195.883 274.179 196.089 274.55 196.172 274.962C196.229 275.243 196.262 275.672 196.097 275.936C195.883 276.266 195.66 276.125 195.305 276.002C194.644 275.779 194.05 275.383 193.579 274.872Z" fill="#161960"/>
<path d="M183.409 261.824C182.938 261.816 182.443 261.948 182.121 262.295C181.667 262.781 181.667 263.532 181.7 264.191C181.741 265.016 181.783 265.841 181.816 266.666C182.005 266.657 182.071 266.402 182.038 266.212C182.005 266.022 181.956 265.791 182.088 265.66C182.253 265.495 182.534 265.635 182.715 265.775C184.366 267.029 185.778 268.587 186.868 270.352C187.462 271.309 187.958 272.332 188.189 273.429C188.42 274.526 188.354 275.705 187.867 276.719C187.718 277.024 187.512 277.33 187.198 277.429C186.86 277.536 186.488 277.387 186.183 277.189C185.341 276.629 184.771 275.738 184.333 274.831C183.888 273.923 183.541 272.959 182.988 272.117C182.476 271.334 181.791 270.649 181.461 269.775C180.866 268.208 181.56 266.468 181.527 264.785C181.51 263.961 181.328 263.086 181.675 262.336C181.964 261.701 182.633 261.264 183.335 261.247C183.896 261.231 184.796 261.577 184.961 262.171C184.482 262.196 183.929 261.841 183.409 261.824Z" fill="#161960"/>
<path d="M191.119 242.781C190.69 245.857 190.203 248.925 189.625 251.985C188.742 256.653 187.71 261.049 187.776 265.849C187.784 266.534 187.801 267.259 187.454 267.853C187.446 267.87 187.437 267.886 187.421 267.894C187.14 268.266 186.579 268.356 186.158 268.447C185.696 268.554 185.2 268.307 184.92 267.927C184.688 267.606 184.598 267.202 184.375 266.88C184.053 266.418 183.524 266.171 183.202 265.701C182.856 265.189 182.674 264.579 182.6 263.977C182.484 262.996 182.641 262.006 182.715 261.024C182.947 257.965 182.377 254.897 181.551 251.944C181.056 250.179 180.478 248.439 179.909 246.69C179.488 245.396 178.992 244.092 178.629 242.773H191.119V242.781Z" fill="#A2493B"/>
<path d="M187.429 278.633C186.959 279.012 186.488 279.004 186.051 278.385C185.811 278.039 185.58 277.684 185.357 277.321C185.217 277.09 185.068 276.859 184.994 276.604C184.92 276.348 184.82 275.804 184.961 275.573C185.299 275.837 185.737 276.348 186.075 276.604C186.191 276.694 186.323 276.793 186.472 276.793C186.653 276.793 186.81 276.637 186.876 276.464C187.025 276.026 187.049 275.424 187.099 274.963C187.165 274.402 187.198 273.833 187.14 273.264C187.008 272.002 186.439 270.822 185.712 269.791C184.977 268.76 184.078 267.853 183.194 266.946C182.872 266.616 182.559 266.286 182.336 265.882C182.121 265.478 182.014 265 182.146 264.563C182.294 264.092 182.691 263.746 183.087 263.457C183.698 263.004 184.342 262.6 185.019 262.245C185.431 262.031 185.861 261.833 186.323 261.758C186.785 261.684 187.281 261.758 187.66 262.039C188.04 262.328 188.238 262.781 188.403 263.235C189.047 265.041 189.278 266.963 189.831 268.793C190.385 270.624 191.367 272.455 193.035 273.396C193.769 273.816 194.76 274.055 195.28 274.773C195.833 275.54 195.098 276.002 194.38 275.952C192.704 275.837 191.053 276.142 189.567 276.958C188.849 277.354 188.205 277.849 187.636 278.435C187.561 278.517 187.495 278.575 187.429 278.633Z" fill="#161960"/>
<path d="M196.271 276.282C195.899 277.643 194.768 278.723 193.464 279.276C192.159 279.829 190.698 279.911 189.287 279.771C188.164 279.655 187.016 279.4 186.125 278.715C185.225 278.039 184.631 276.859 184.903 275.771C185.332 277.536 186.983 278.831 188.758 279.194C190.533 279.556 192.407 279.103 194.033 278.303C194.562 278.039 195.09 277.734 195.437 277.255C195.742 276.835 195.874 276.315 195.924 275.804C196.064 274.237 195.371 273 194.339 271.895C195.998 272.299 196.659 274.864 196.271 276.282Z" fill="#161960"/>
<path d="M194.355 274.319C194.248 274.278 194.108 274.262 194.033 274.344C193.976 274.41 193.984 274.509 194.017 274.583C194.108 274.814 194.355 274.921 194.586 275.012C194.669 275.045 194.759 275.078 194.85 275.061C195.329 274.946 194.504 274.377 194.355 274.319Z" fill="white"/>
<path d="M191.829 272.926C191.713 272.901 191.59 272.909 191.499 272.975C191.408 273.041 191.359 273.173 191.408 273.28C191.458 273.379 191.573 273.42 191.689 273.445C191.796 273.47 191.911 273.478 192.019 273.478C192.101 273.478 192.192 273.461 192.241 273.395C192.398 273.148 191.986 272.959 191.829 272.926Z" fill="white"/>
<path d="M190.558 270.327C190.467 270.295 190.368 270.352 190.319 270.426C190.269 270.509 190.261 270.6 190.269 270.698C190.277 270.863 190.492 271.655 190.739 271.267C190.871 271.078 190.797 270.418 190.558 270.327Z" fill="white"/>
<path d="M190.013 268.084C189.996 268.043 189.972 267.993 189.93 267.969C189.889 267.944 189.831 267.936 189.798 267.96C189.765 267.985 189.757 268.035 189.757 268.076C189.749 268.208 189.765 268.859 190.029 268.768C190.236 268.694 190.071 268.208 190.013 268.084Z" fill="white"/>
<path d="M189.295 266.673C189.245 266.682 189.196 266.657 189.163 266.616C189.13 266.574 189.113 266.525 189.105 266.484C189.064 266.335 188.882 265.742 189.204 265.956C189.352 266.063 189.567 266.624 189.295 266.673Z" fill="white"/>
<path d="M187.726 275.441C187.726 275.375 187.726 275.309 187.693 275.251C187.668 275.193 187.602 275.144 187.544 275.152C187.445 275.161 187.396 275.268 187.363 275.358C187.297 275.54 187.231 275.721 187.165 275.902C187.082 276.133 187.132 276.529 187.445 276.331C187.693 276.166 187.726 275.696 187.726 275.441Z" fill="white"/>
<path d="M187.569 274.228C187.462 274.253 187.379 274.137 187.33 274.038C187.239 273.857 187.165 273.667 187.099 273.47C187.066 273.379 187.041 273.263 187.115 273.198C187.396 272.926 187.998 274.137 187.569 274.228Z" fill="white"/>
<path d="M186.645 270.954C186.81 271.135 186.95 271.341 187.065 271.564C187.098 271.638 187.131 271.737 187.065 271.795C186.999 271.852 186.9 271.803 186.834 271.745C186.645 271.58 186.488 271.383 186.381 271.152C186.356 271.094 186.331 271.036 186.331 270.97C186.331 270.905 186.364 270.839 186.422 270.814C186.48 270.789 186.562 270.822 186.57 270.888" fill="white"/>
<path d="M185.934 269.56C185.976 269.651 186.009 269.774 185.951 269.857C185.901 269.923 185.819 269.939 185.745 269.923C185.67 269.906 185.604 269.865 185.538 269.816C185.382 269.684 184.821 269.074 185.159 268.892C185.448 268.736 185.844 269.37 185.934 269.56Z" fill="white"/>
<path d="M184.416 268.018C184.432 268.067 184.449 268.117 184.424 268.166C184.383 268.248 184.259 268.232 184.176 268.183C183.986 268.075 183.854 267.894 183.731 267.713C183.673 267.639 183.623 267.556 183.599 267.465C183.533 267.202 183.772 267.127 183.962 267.251C184.168 267.399 184.325 267.787 184.416 268.018Z" fill="white"/>
<path d="M194.042 274.344C194.042 274.344 191.284 274.476 187.693 275.251L187.338 276.233C187.338 276.233 192.143 274.929 194.537 274.839" fill="white"/>
<path d="M187.289 273.494C188.667 273.024 190.17 272.917 191.598 273.198C191.623 273.264 191.648 273.329 191.681 273.395C190.286 273.42 188.907 273.684 187.553 274.006" fill="white"/>
<path d="M186.967 271.812C188.089 271.226 189.303 270.921 190.566 270.979C190.574 270.814 190.541 270.649 190.475 270.501C189.146 270.262 187.751 270.517 186.587 271.21" fill="white"/>
<path d="M190.063 268.554C190.029 268.439 189.996 268.323 189.955 268.208C188.362 268.101 186.736 268.464 185.398 269.338C185.44 269.42 185.53 269.577 185.572 269.66C186.967 269.09 188.568 268.629 190.063 268.554Z" fill="white"/>
<path d="M183.995 267.746C184.086 267.82 184.144 267.894 184.177 268.01C185.77 267.193 187.503 266.657 189.278 266.435C189.245 266.344 189.204 266.253 189.171 266.162C187.314 266.088 185.522 266.698 183.995 267.746Z" fill="white"/>
<path d="M192.638 278.971C194.553 278.294 195.99 277.255 195.94 276.059C195.891 274.863 192.044 275.861 190.822 276.191C189.592 276.529 187.016 278.608 187.091 278.781C187.173 278.954 189.815 279.968 192.638 278.971Z" fill="white"/>
<path d="M172.611 129.882L166.948 192.439C166.774 196.67 163.381 200.117 159.047 200.464C154.292 200.843 150.123 197.379 149.777 192.744C148.175 181.948 147.011 169.825 146.772 156.554C146.606 147.556 145.624 137.643 146.185 129.816C153.657 129.371 165.131 130.328 172.611 129.882Z" fill="#161960"/>
<path d="M149.207 191.796C149.422 194.328 153.558 224.827 153.946 227.334C154.16 228.736 154.449 230.146 154.35 231.573C154.259 232.868 153.401 233.932 154.119 235.227C154.358 235.656 154.738 236.052 154.746 236.546C154.763 237.214 154.111 237.709 153.822 238.32C153.161 239.763 154.623 241.206 155.588 242.072C156.158 242.575 156.703 243.194 156.752 243.944C156.818 244.917 156.018 245.841 156.199 246.798C156.397 247.821 157.57 248.324 158.602 248.588C162.209 249.511 166.989 249.685 170.382 247.812C171.48 247.202 172.338 246.089 172.388 244.86C172.446 243.425 171.43 242.097 171.538 240.67C171.637 239.375 172.636 238.097 172.157 236.885C171.736 235.829 170.365 235.383 169.903 234.344C169.482 233.396 169.953 232.315 170.308 231.342C171.909 226.963 167.724 197.858 167.649 193.511C167.641 193 167.534 189.94 164.925 187.631C163.282 186.179 161.053 185.355 158.651 185.544C154.069 185.874 148.926 187.334 149.207 191.796Z" fill="#161960"/>
<path d="M179.042 142.394H164.876V156.183H179.042V142.394Z" fill="#161960"/>
<path d="M169.788 133.297L176.961 195.713C177.226 199.944 180.693 203.309 185.035 203.565C189.799 203.845 193.885 200.29 194.141 195.647C195.511 184.827 196.403 172.67 196.353 159.4C196.328 152.86 197.831 146.022 196.89 139.532C196.576 137.346 195.718 133.346 193.67 132.051C192.077 131.037 188.668 132.043 186.884 132.2C181.221 132.695 175.492 133.511 169.788 133.297Z" fill="#161960"/>
<path d="M194.38 192.315C194.397 194.855 193.142 224.15 192.993 226.682C192.911 228.101 192.754 229.528 192.985 230.938C193.191 232.216 194.157 233.198 193.555 234.55C193.357 235.004 193.018 235.433 193.051 235.919C193.101 236.587 193.794 237.016 194.133 237.602C194.925 238.979 193.612 240.546 192.721 241.503C192.201 242.055 191.714 242.723 191.73 243.474C191.755 244.447 192.638 245.288 192.548 246.262C192.448 247.301 191.326 247.911 190.327 248.266C186.818 249.519 182.08 250.138 178.53 248.587C177.374 248.084 176.417 247.053 176.26 245.833C176.07 244.414 176.953 242.996 176.714 241.577C176.499 240.299 175.385 239.119 175.748 237.866C176.062 236.777 177.391 236.2 177.754 235.128C178.084 234.146 177.515 233.115 177.069 232.175C175.071 227.961 176.507 198.6 176.177 194.262C176.136 193.75 175.954 190.699 178.34 188.15C179.834 186.55 181.981 185.528 184.391 185.486C188.981 185.429 194.232 187.853 194.38 192.315Z" fill="#161960"/>
<path d="M197.41 135.68C196.609 128.167 195.817 120.645 195.016 113.132C193.406 97.9483 192.044 82.8473 193.191 67.5813C193.951 57.4535 188.932 44.9257 177.993 42.435C175.005 41.7587 171.901 41.8164 168.838 41.9566C160.674 42.336 152.138 43.3257 147.853 51.3009C141.645 62.7648 145.096 80.571 145.434 93.1483C145.566 97.9483 146.227 102.418 144.485 106.88C142.297 112.505 143.403 112.06 145.36 117.223C146.136 119.276 144.964 121.717 143.849 123.408C142.438 125.561 140.663 127.837 141.026 130.385C141.274 132.167 142.561 133.874 142.05 135.59C141.761 136.554 140.927 137.313 140.745 138.311C140.473 139.754 141.62 141.058 142.735 142.014C150.536 148.695 160.608 150.641 170.621 150.344C177.614 150.138 193.324 152.983 196.956 144.521C198.046 141.981 197.773 139.086 197.484 136.34C197.459 136.126 197.435 135.903 197.41 135.68Z" fill="#8159EE"/>
<path d="M159.014 43.1608C147.589 46.7814 139.177 55.6226 131.788 65.0494C130.525 66.6577 129.229 68.3566 128.899 70.369C128.412 73.3463 130.145 76.1834 131.796 78.7071C133.134 80.736 134.669 82.9216 137.022 83.5401C140.043 84.3319 143.032 82.1793 145.12 79.8535C147.201 77.5278 149.1 74.7649 152.03 73.6845" fill="#8159EE"/>
<path d="M180.437 43.1608C191.111 48.6123 197.955 58.7071 203.692 69.2226C204.666 71.0123 205.673 72.9092 205.665 74.9463C205.657 77.9649 203.478 80.4803 201.43 82.6906C199.779 84.4721 197.897 86.3772 195.478 86.5999C192.366 86.8803 189.765 84.2741 188.098 81.635C186.422 78.9958 185.01 75.9607 182.294 74.4185" fill="#8159EE"/>
<path d="M214.234 144.546C213.97 144.258 213.706 143.977 213.45 143.68C211.873 141.89 210.651 138.245 207.68 138.954C206.928 139.136 206.26 139.548 205.649 140.018C204.278 141.066 202.52 142.839 202.074 144.571C201.868 145.379 201.909 146.237 201.637 147.078C201.348 147.961 200.976 148.851 200.976 149.792C200.976 150.798 201.051 151.837 200.72 152.818C200.497 153.495 200.076 154.229 200.341 154.847C200.497 155.21 200.877 155.416 201.273 155.433C201.901 155.449 202.644 155.062 202.982 154.46C203.312 153.849 203.461 153.115 203.932 152.579C205.426 150.888 206.771 154.864 207.242 155.746C208.356 157.841 209.463 159.928 210.577 162.022C210.808 162.46 211.139 162.963 211.634 162.954C212.071 162.946 212.402 162.517 212.451 162.08C212.501 161.651 212.344 161.222 212.187 160.818C211.386 158.748 210.594 156.678 209.793 154.608C209.677 154.311 209.57 153.956 209.76 153.709C209.95 153.453 210.363 153.453 210.627 153.635C210.891 153.816 211.048 154.113 211.188 154.402C212.137 156.307 213.095 158.212 214.044 160.126C214.234 160.497 214.424 160.884 214.763 161.132C215.101 161.379 215.613 161.429 215.91 161.132C216.092 160.942 216.141 160.67 216.158 160.406C216.224 159.136 215.547 158.138 214.969 157.066C214.226 155.672 213.607 154.196 212.93 152.777C212.872 152.645 212.806 152.505 212.831 152.365C212.872 152.084 213.235 151.961 213.5 152.051C213.764 152.142 213.954 152.373 214.119 152.596C214.804 153.486 215.506 154.377 216.183 155.276C216.752 156.035 216.934 156.942 217.627 157.643C217.858 157.882 218.172 158.097 218.494 158.014C218.808 157.932 218.981 157.569 218.956 157.247C218.932 156.926 218.766 156.629 218.601 156.348C217.875 155.119 217.058 153.948 216.323 152.719C215.596 151.507 215.076 150.171 214.498 148.876C214.441 148.744 214.383 148.596 214.449 148.472C214.507 148.365 214.655 148.323 214.779 148.34C214.903 148.365 215.01 148.431 215.118 148.505C216.117 149.189 217.066 150.006 217.9 150.872C218.18 151.161 218.577 151.482 218.94 151.309C219.196 151.185 219.303 150.847 219.237 150.567C219.13 150.031 218.568 149.618 218.263 149.189C217.85 148.612 217.404 148.051 216.942 147.515C216.075 146.476 215.142 145.519 214.234 144.546Z" fill="#A2493B"/>
<path d="M211.163 147.853C211.46 146.039 216.653 113.28 216.645 97.94C216.645 93.7256 213.31 90.2782 209.099 90.1215C204.741 89.9648 201.092 93.3792 200.976 97.7338L202.041 146.476L211.163 147.853Z" fill="#A2493B"/>
<path d="M150.899 10.9876C150.924 11.6639 151.007 12.3732 150.635 12.8845C150.503 13.0659 150.305 13.2062 150.231 13.4123C150.099 13.7505 150.321 14.1216 150.288 14.4763C150.206 15.3752 148.761 15.5402 148.514 16.4062C148.373 16.901 148.687 17.4041 148.67 17.9154C148.654 18.468 148.258 18.9216 147.969 19.3917C147.506 20.1505 147.762 20.4391 148.018 21.1154C148.291 21.8494 148.348 22.6494 148.522 23.4247C148.91 25.1402 149.545 26.8061 150.412 28.3319C153.021 24.0845 154.87 19.3752 155.853 14.4928C156.29 12.3402 157.066 10.1711 156.719 7.95256C156.662 7.58143 156.579 7.21029 156.364 6.90513C156.158 6.59998 155.803 6.36081 155.432 6.38555C154.837 6.42679 154.482 7.04535 153.987 7.37524C153.648 7.59792 153.227 7.68039 152.848 7.8371C151.923 8.20823 151.221 9.05771 150.957 10.0062C150.883 10.3113 150.883 10.6495 150.899 10.9876Z" fill="#161960"/>
<path d="M178.381 23.037C176.887 28.9586 172.116 33.3957 167.575 37.4864C168.401 32.8679 168.632 28.1339 168.252 23.4576C168.087 21.404 167.798 19.3504 168.004 17.305C168.211 15.2597 168.978 13.1731 170.555 11.8535C178.002 5.6102 179.488 18.6411 178.381 23.037Z" fill="#161960"/>
<path d="M173.073 42.2782C172.916 42.1215 172.792 41.9483 172.71 41.7504C171.967 39.9607 172.256 37.1648 172.215 35.2597C172.157 32.4555 172.215 29.6432 172.404 26.8473C172.404 26.8473 162.118 31.1277 161.961 31.1937C162.556 30.9463 163.646 38.6081 163.67 39.2267C163.778 41.4782 164.322 42.5504 162.407 43.6143C160.566 44.637 158.593 44.505 157.413 46.6164C156.571 48.1256 156.728 49.9895 157.157 51.6555C158.205 55.7297 160.839 59.4411 164.512 61.4864C168.194 63.5318 172.9 63.7792 176.631 61.8328C180.363 59.8864 182.897 55.6968 182.583 51.5071C182.385 48.9339 181.064 46.4844 179.1 44.8267C177.655 43.6143 174.32 43.5071 173.073 42.2782Z" fill="#A2493B"/>
<path d="M163.67 39.2184C163.695 39.8205 163.761 40.34 163.794 40.7937C165.156 39.9524 166.494 39.0535 167.831 38.2122C169.375 37.239 170.828 36.2576 172.223 35.2184C172.165 32.4308 172.223 29.6267 172.413 26.8391C172.413 26.8391 162.127 31.1195 161.97 31.1854C162.548 30.938 163.637 38.5916 163.67 39.2184Z" fill="#161960"/>
<path d="M162.457 8.48862C156.571 7.79583 150.478 14.5257 149.083 20.6206C148.002 25.3381 147.102 36.9504 155.341 40.2411C159.064 41.7257 162.787 40.571 165.916 38.3113C168.945 36.1257 172.14 32.868 172.892 29.0907C174.419 29.7834 176.4 29.2556 177.382 27.8948C179.05 25.5773 177.349 20.769 174.039 22.5587C174.031 22.5669 178.084 10.336 162.457 8.48862Z" fill="#A2493B"/>
<path d="M152.022 24.3072C152.179 24.5381 152.46 24.6948 152.74 24.7031C153.161 24.7113 153.459 24.4309 153.607 24.0598C153.83 23.4907 153.657 22.8804 152.98 22.7649C152.666 22.7155 152.328 22.8309 152.121 23.0701C151.865 23.367 151.791 23.9691 152.022 24.3072Z" fill="#161960"/>
<path d="M161.334 26.5423C161.491 26.7732 161.772 26.9299 162.052 26.9381C162.473 26.9464 162.771 26.666 162.919 26.2948C163.142 25.7258 162.969 25.1154 162.292 25C161.978 24.9505 161.64 25.066 161.433 25.3051C161.186 25.6103 161.111 26.2041 161.334 26.5423Z" fill="#161960"/>
<path d="M174.543 28.9423C174.485 28.9423 174.427 28.9175 174.386 28.868C174.113 28.5464 173.965 28.1175 173.932 27.5402C173.89 26.7155 174.072 25.8907 174.46 25.165C174.666 24.7856 174.881 24.5217 175.145 24.3485C175.5 24.1093 175.938 24.0516 176.276 24.2C176.384 24.2495 176.433 24.3732 176.392 24.4804C176.342 24.5876 176.227 24.6454 176.111 24.5959C175.897 24.5052 175.616 24.5464 175.376 24.7114C175.17 24.8516 174.997 25.0577 174.832 25.3794C174.477 26.0392 174.311 26.7814 174.353 27.532C174.378 28.0103 174.493 28.365 174.699 28.6041C174.774 28.6949 174.766 28.8268 174.675 28.901C174.642 28.9258 174.592 28.9423 174.543 28.9423Z" fill="#161960"/>
<path d="M174.138 27.4404C174.121 27.4404 174.105 27.4404 174.08 27.4321C173.965 27.3991 173.899 27.2837 173.932 27.1766C174.097 26.5749 174.691 26.1133 175.21 25.932C175.318 25.8908 175.442 25.9485 175.483 26.0639C175.524 26.171 175.466 26.2946 175.359 26.3359C174.955 26.476 174.468 26.8386 174.344 27.292C174.319 27.3827 174.237 27.4404 174.138 27.4404Z" fill="#161960"/>
<path d="M180.61 18.1133C181.188 17.0329 180.949 15.7216 180.693 14.5174C180.486 13.5607 180.28 12.5875 179.826 11.7133C179.372 10.8473 178.637 10.0721 177.696 9.79166C178.241 8.53805 178.002 6.98754 177.118 5.94837C176.26 4.95043 174.848 4.49682 173.56 4.76899C173.494 4.7195 173.428 4.67827 173.37 4.62878C173.189 3.52363 171.884 2.75662 170.828 3.10301C170.745 3.06178 170.663 3.01229 170.58 2.97105C170.547 2.95456 170.506 2.94631 170.473 2.92981C169.73 0.801979 167.146 -0.525853 164.991 0.199919C164.273 0.447342 163.621 0.876207 162.911 1.14012C162.383 1.33806 161.821 1.43703 161.26 1.44528C160.211 1.46178 159.188 1.14013 158.147 1.09064C156.769 1.02466 155.539 1.7092 155.093 3.05352C154.895 3.67208 154.887 4.34012 155.01 4.97517C155.151 5.68445 155.77 6.4927 155.605 7.21847C155.514 7.62259 155.266 7.97723 155.11 8.36486C154.953 8.75249 154.895 9.23084 155.151 9.55249C155.456 9.94012 156.067 9.96486 156.373 10.3442C156.637 10.6741 156.587 11.1442 156.686 11.5566C156.835 12.2082 157.33 12.703 157.809 13.1731C158.461 13.8082 159.113 14.4432 159.815 15.0205C160.203 15.3422 160.979 16.1917 161.45 16.3154C162.11 16.4886 162.572 15.8123 163.225 15.8453C164.042 15.8947 164.314 17.0494 165.074 17.3628C165.635 17.602 166.271 17.2968 166.84 17.0659C167.41 16.835 168.161 16.7195 168.549 17.1978C168.912 17.635 168.731 18.336 169.069 18.7978C169.697 19.6638 171.414 18.9133 171.959 19.8205C172.281 20.3648 171.901 21.0411 171.521 21.5442C171.141 22.0473 170.737 22.7071 171.034 23.2679C171.249 23.6721 171.769 23.8617 171.95 24.2906C172.264 25.0411 171.348 26.0968 171.975 26.6246C172.305 26.905 172.842 26.7318 173.106 26.3937C173.37 26.0556 173.445 25.6102 173.527 25.1896C173.626 24.7112 176.326 20.67 176.466 20.7195L177.027 20.9092C176.978 21.602 176.928 22.336 177.234 22.9545C177.539 23.5813 178.315 24.0349 178.943 23.738C179.562 23.4411 179.702 22.6246 179.628 21.9484C179.545 21.2721 179.322 20.5793 179.504 19.9195C179.677 19.235 180.272 18.7401 180.61 18.1133Z" fill="#161960"/>
<path d="M155.365 30.3855C155.027 30.3855 154.713 30.336 154.433 30.237C153.797 30.0144 153.302 29.5278 153.153 28.9504C152.98 28.2824 153.31 27.5401 153.896 27.2845C154.317 27.103 154.755 27.1772 155.167 27.2432C155.448 27.2927 155.729 27.3339 155.976 27.3009L156.224 25.9236C156.24 25.8082 156.34 25.7257 156.472 25.7504C156.587 25.7752 156.662 25.8824 156.645 25.9979L156.373 27.5154C156.356 27.5979 156.298 27.6638 156.216 27.6803C155.836 27.7793 155.464 27.7216 155.093 27.6556C154.713 27.5896 154.358 27.5319 154.061 27.6638C153.665 27.837 153.442 28.3649 153.566 28.8267C153.681 29.2638 154.069 29.6432 154.573 29.8164C155.002 29.9649 155.522 29.9731 156.125 29.8576C156.24 29.8329 156.348 29.9071 156.373 30.0226C156.397 30.1381 156.323 30.2453 156.207 30.27C155.91 30.3525 155.63 30.3855 155.365 30.3855Z" fill="#161960"/>
<path d="M161.961 31.5401C161.895 31.5401 161.829 31.5071 161.788 31.4494C161.722 31.3504 161.747 31.2184 161.846 31.1525L175.418 22.0473C175.517 21.9813 175.649 22.0061 175.715 22.1051C175.781 22.204 175.756 22.336 175.657 22.402L162.085 31.5071C162.044 31.5318 162.003 31.5401 161.961 31.5401Z" fill="white"/>
<path d="M161.722 39.3175C161.656 39.3175 161.59 39.2845 161.549 39.2268C161.483 39.1278 161.507 38.9959 161.598 38.9299C165.718 36.0928 169.713 32.967 173.469 29.6515C173.56 29.5773 173.692 29.5773 173.766 29.668C173.841 29.7588 173.833 29.8907 173.75 29.9649C169.977 33.2969 165.973 36.4227 161.838 39.2763C161.813 39.301 161.763 39.3175 161.722 39.3175Z" fill="white"/>
<path d="M149.711 28.6947C148.91 26.4762 148.233 24.5793 148.505 21.371C148.514 21.2638 148.604 21.1813 148.72 21.1813C148.728 21.1813 148.728 21.1813 148.736 21.1813C148.852 21.1896 148.943 21.2968 148.935 21.4123C148.67 24.538 149.306 26.303 150.107 28.538L149.711 28.6947Z" fill="white"/>
<path d="M149.826 36.0266C150.594 37.14 151.692 37.9895 153.178 38.5916C154.647 39.1854 156.199 39.5813 157.776 39.771C159.452 39.9689 162.919 40.7771 163.216 38.2782C163.266 37.874 163.191 37.4699 163.142 37.0658C162.952 35.6555 162.927 34.2287 163.068 32.8184C163.175 31.8122 164.108 30.0143 162.647 29.9648C160.484 29.8905 158.23 29.7173 156.1 29.2885C154.721 29.0081 153.359 28.6204 152.038 28.1173C151.403 27.8782 149.628 26.8472 148.951 27.1277C148.646 27.2514 148.48 27.5895 148.373 27.9029C147.49 30.3854 148.357 33.907 149.826 36.0266Z" fill="white"/>
<path d="M147.143 125.668C147.118 125.668 147.094 125.668 147.069 125.651C146.962 125.61 146.904 125.486 146.945 125.379C147.531 123.779 147.275 121.783 146.169 119.449C145.897 118.88 145.599 118.303 145.302 117.75C144.617 116.455 143.915 115.128 143.552 113.676C142.834 110.822 143.494 107.87 144.138 105.024C144.303 104.29 144.468 103.556 144.609 102.822C145.897 96.142 145.178 89.1895 144.477 82.4596C143.758 75.5812 143.024 68.472 144.419 61.6266C144.444 61.5111 144.543 61.4369 144.667 61.4617C144.782 61.4864 144.856 61.5936 144.832 61.7091C143.445 68.4885 144.179 75.5647 144.889 82.4101C145.591 89.173 146.318 96.1585 145.013 102.897C144.873 103.631 144.708 104.373 144.534 105.107C143.907 107.911 143.255 110.806 143.948 113.569C144.303 114.963 144.997 116.282 145.665 117.544C145.963 118.105 146.268 118.682 146.541 119.268C147.688 121.709 147.952 123.812 147.325 125.528C147.317 125.618 147.234 125.668 147.143 125.668Z" fill="#161960"/>
<path d="M193.233 99.5977C193.117 99.5977 193.018 99.507 193.018 99.3833C193.002 87.3916 191.598 75.3998 188.849 63.7215C188.824 63.606 188.89 63.4905 189.006 63.4658C189.113 63.4411 189.237 63.507 189.262 63.6225C192.019 75.3256 193.423 87.3586 193.439 99.3833C193.439 99.507 193.348 99.5977 193.233 99.5977Z" fill="#161960"/>
</svg>
